<svg id="Layer_1" xmlns="http://www.w3.org/2000/svg" viewBox="0 0 393 181.9"><style>.st0{fill:#043673;}</style><path class="st0" d="M75.9 163.5c0-1.6-.1-4.7-.5-5.5-.2-.3-.7-.5-1.3-.6l-.7-.1c-.2-.2-.1-.5.1-.6 1 .1 2 .1 3 .1 1.1 0 1.8 0 2.8-.1.2.1.2.5.1.6l-.6.1c-.7.1-1.2.3-1.3.6-.4.9-.4 3.9-.4 5.4v3c0 2.3-.4 4.7-1.8 6.3-1.1 1.2-3.1 1.9-5 1.9-1.8 0-3.6-.3-4.9-1.5-1.4-1.2-2.1-3.1-2.1-6.2v-6.2c0-2.7 0-3.2-1.6-3.3l-.7-.1c-.2-.1-.1-.6.1-.6 1.3.1 2.2.1 3.3.1 1.1 0 1.9 0 3.2-.1.2.1.2.5.1.6l-.6.1c-1.5.1-1.6.6-1.6 3.3v5.7c0 4.3 1.3 7 5.3 7 3.8 0 5.3-3 5.3-7v-2.9zm34.3 6.3c0 .8 0 3.9.1 4.6-.1.2-.2.3-.5.3-.3-.4-1.1-1.4-3.4-4l-6.1-7c-.7-.8-2.5-3-3.1-3.6h-.1c-.1.3-.1.9-.1 1.7v5.8c0 1.2 0 4.7.5 5.5.2.3.7.5 1.3.5l.8.1c.2.2.1.5-.1.7-1.2-.1-2.1-.1-3.1-.1-1.1 0-1.8 0-2.7.1-.2-.1-.2-.5-.1-.7l.7-.1c.6-.1 1-.2 1.2-.5.4-.9.3-4.2.3-5.4V160c0-.7 0-1.3-.6-1.9-.4-.4-1-.6-1.6-.6l-.4-.1c-.2-.2-.2-.6.1-.7 1.1.1 2.5.1 3 .1.4 0 .9 0 1.2-.1.5 1.4 3.6 4.8 4.5 5.8l2.6 2.9c1.8 2 3.1 3.5 4.3 4.8h.1c.1-.1.1-.6.1-1.1v-5.6c0-1.2 0-4.7-.5-5.5-.2-.2-.6-.4-1.6-.5l-.4-.1c-.2-.2-.2-.6.1-.7 1.2.1 2.1.1 3.1.1 1.1 0 1.8 0 2.7-.1.2.1.2.5.1.7l-.4.1c-.8.1-1.4.3-1.5.6-.5.9-.4 4.2-.4 5.4v6.3zm19.6-8.9c0-2.8-.1-3.3-1.6-3.4l-.7-.1c-.2-.1-.1-.6.1-.7 1.3.1 2.2.1 3.3.1 1 0 1.9 0 3.3-.1.2.1.2.6.1.7l-.7.1c-1.5.1-1.6.6-1.6 3.4v9.4c0 2.8.1 3.2 1.6 3.4l.7.1c.2.1.1.6-.1.7-1.3-.1-2.2-.1-3.3-.1-1.1 0-2 0-3.3.1-.2-.1-.2-.5-.1-.7l.7-.1c1.5-.2 1.6-.6 1.6-3.4v-9.4zm21.3-1.2c-.6-1.5-1-2-2.1-2.2l-.5-.1c-.2-.2-.2-.5.1-.7.8.1 1.6.1 2.7.1 1.2 0 2.1 0 3.2-.1.2.1.2.5.1.7l-.4.1c-1 .1-1.2.3-1.2.5.1.3.5 1.7 1.3 3.7 1.2 3.1 2.4 6.1 3.7 9.1.8-1.7 1.9-4.5 2.5-5.9.8-1.8 2-4.8 2.4-5.9.2-.6.2-.8.2-1 0-.2-.3-.4-1.2-.5l-.5-.1c-.2-.2-.1-.6.1-.7.7.1 1.7.1 2.7.1.9 0 1.7 0 2.6-.1.2.1.2.5.1.7l-.8.1c-.6.1-1 .4-1.4.9-.7 1.2-1.8 3.4-2.9 6.1l-1.4 3.3c-1.1 2.4-2.3 5.5-2.7 6.9-.1.1-.2.1-.3.1-.1 0-.3 0-.4-.1-.3-1.1-.8-2.4-1.2-3.5l-4.7-11.5zm31.6 1.1c0-2.8-.1-3.2-1.6-3.3l-.4-.1c-.2-.1-.1-.6.1-.7 1.1.1 2 .1 3.1.1h4.9c1.7 0 3.2 0 3.5-.1.2.5.3 2.4.4 3.5-.1.2-.5.2-.7.1-.4-1.2-.6-2.2-2-2.5-.6-.1-1.4-.2-2.6-.2h-1.9c-.8 0-.8.1-.8 1.1v5.3c0 .7.1.7.9.7h1.5c1.1 0 1.9-.1 2.2-.2.3-.1.5-.3.6-.9l.2-1.1c.1-.2.6-.2.7 0 0 .6-.1 1.7-.1 2.7 0 .9.1 1.9.1 2.5-.1.2-.6.2-.7 0l-.2-1c-.1-.5-.3-.9-.8-1-.4-.1-1-.1-2-.1h-1.5c-.8 0-.9 0-.9.7v3.7c0 1.4.1 2.3.5 2.7.3.3.9.6 3.2.6 2 0 2.8-.1 3.4-.4.5-.3 1.2-1.2 1.9-2.6.2-.1.6-.1.7.2-.2.9-.8 2.9-1.2 3.7-2.4-.1-4.7-.1-7-.1h-2.4c-1.1 0-2 0-3.6.1-.2-.1-.2-.5-.1-.7l.9-.1c1.5-.1 1.6-.5 1.6-3.3v-9.3zm28.5.1c0-2.5-.1-3-1.2-3.1l-.8-.1c-.2-.1-.2-.6 0-.7 1.5-.1 3.3-.2 5.9-.2 1.6 0 3.2.1 4.4.8 1.3.7 2.2 1.8 2.2 3.7 0 2.5-2 3.9-3.3 4.4-.1.2 0 .4.1.6 2.1 3.4 3.5 5.5 5.3 7 .4.4 1.1.7 1.8.7.1.1.2.3 0 .4-.2.1-.7.1-1.2.1-2.2 0-3.6-.7-5.4-3.3-.7-1-1.8-2.8-2.6-4-.4-.6-.8-.8-1.9-.8-1.2 0-1.2 0-1.2.6v3.3c0 2.8.1 3.1 1.6 3.3l.6.1c.2.1.1.6-.1.7-1.2-.1-2.1-.1-3.1-.1-1.1 0-2.1 0-3.3.1-.2-.1-.2-.5-.1-.7l.7-.1c1.5-.2 1.6-.5 1.6-3.3v-9.4zm2.1 3.7c0 .5 0 .8.1.9.1.1.5.1 1.8.1 1 0 1.9-.1 2.7-.7.7-.6 1.3-1.5 1.3-3.3 0-2.1-1.3-4.1-4.2-4.1-1.6 0-1.7.1-1.7.8v6.3zm29.6 10.1c-2.2 0-3.6-.7-4.1-1-.3-.6-.7-2.5-.7-3.7.1-.2.5-.2.6-.1.4 1.3 1.5 3.9 4.5 3.9 2.2 0 3.3-1.4 3.3-3 0-1.2-.2-2.5-2.2-3.7l-2.5-1.6c-1.3-.9-2.8-2.4-2.8-4.5 0-2.5 1.9-4.5 5.4-4.5.8 0 1.8.2 2.4.3.4.1.7.2.9.2.2.6.5 2.1.5 3.2-.1.2-.5.2-.7.1-.3-1.3-1.1-3-3.6-3-2.6 0-3.1 1.7-3.1 2.9 0 1.5 1.3 2.6 2.2 3.2l2.1 1.3c1.7 1 3.3 2.6 3.3 5.1.1 2.9-2.1 4.9-5.5 4.9m23.5-13.8c0-2.8-.1-3.3-1.6-3.4l-.7-.1c-.2-.1-.1-.6.1-.7 1.3.1 2.2.1 3.3.1 1.1 0 1.9 0 3.3-.1.2.1.2.6.1.7l-.7.1c-1.5.1-1.6.6-1.6 3.4v9.4c0 2.8.1 3.2 1.6 3.4l.7.1c.2.1.1.6-.1.7-1.3-.1-2.2-.1-3.3-.1-1.1 0-2 0-3.3.1-.2-.1-.2-.5-.1-.7l.7-.1c1.6-.2 1.6-.6 1.6-3.4v-9.4zm29.2 9.4c0 2.8.1 3.2 1.6 3.3l.8.1c.2.1.1.6-.1.7-1.5-.1-2.4-.1-3.4-.1-1.1 0-2 0-3.6.1-.2-.1-.2-.5 0-.7l.9-.1c1.5-.1 1.6-.5 1.6-3.3v-11.8c0-.8 0-.8-.8-.8h-1.4c-1.1 0-2.6.1-3.2.7-.6.6-.9 1.2-1.2 1.8-.2.2-.6 0-.7-.2.4-1.2.8-2.9 1-3.9h.5c.2.8 1 .8 2.2.8h10.6c1.4 0 1.7-.1 2.1-.7.1-.1.4 0 .5.1-.3 1.1-.5 3.2-.4 4-.1.2-.6.2-.7.1-.1-.7-.3-1.6-.7-1.9-.6-.5-1.6-.7-3.1-.7h-1.9c-.8 0-.8 0-.8.9v11.6zm29.9 0c0 2.8.2 3.2 1.6 3.4l1 .1c.2.2.1.6-.1.7-1.6-.1-2.5-.1-3.6-.1s-2.1 0-3.4.1c-.2-.1-.2-.5-.1-.7l.8-.1c1.5-.2 1.6-.5 1.6-3.4v-1.4c0-1.4-.1-1.8-.8-3.3l-3.1-6.1c-.9-1.7-1.3-1.9-2.1-2l-.7-.1c-.2-.2-.1-.6.1-.7.8.1 1.8.1 3 .1s2.2 0 2.8-.1c.2.1.2.5.1.7l-.3.1c-.9.1-1.1.3-1.1.5 0 .3.7 1.8.8 2 1 1.9 1.9 4 3 5.9.8-1.4 1.7-2.9 2.5-4.5.7-1.4 1.7-3.2 1.7-3.5 0-.2-.5-.3-1.1-.4l-.5-.1c-.2-.2-.2-.6.1-.7.9.1 1.7.1 2.5.1s1.5 0 2.4-.1c.2.1.2.5.1.7l-.7.1c-1.4.2-2.2 1.9-3.5 4.2l-1.7 2.9c-1.2 2-1.2 2.3-1.2 4.3v1.4zM218.4 50.1l-6.7-4.5v15.6l6.7 4.5zm-.6-38c-.1-.1-.2-.3-.4-.3l-.6-.1-2.1-1.6c-4.7-1-12.5-.6-18 1.5-5.4-2-13.2-2.4-18-1.5l-2.1 1.6-.6.1c-.2 0-.3.2-.4.3L170 24.9c-.2.4.1.7.4.6 8.8-1.7 18.1-2.2 26.3-2.2s17.5.5 26.3 2.2c.3.1.6-.2.4-.6l-5.6-12.8zm-22.4 9.7c-5.9-.1-17.8.9-23 1.7l3.9-10.3 1.9-1.5-2.9 8.2c5.8-1.1 13.9-.8 21 1.6-.4.1-.7.2-.9.3m2.7 0c-.2-.1-.5-.3-1-.3 7.1-2.3 15.2-2.7 21-1.6l-2.9-8.2 1.9 1.5 3.9 10.3c-5.1-.8-17-1.8-22.9-1.7m-17.2 38.1c6.7 0 12.2-5.5 12.2-12.2 0-6.7-5.5-12.2-12.2-12.2s-12.2 5.5-12.2 12.2c0 6.7 5.5 12.2 12.2 12.2m1.6-1.2c.9-.9 1.7-1.9 2.4-2.9 1 .2 1.9.4 2.8.7-1.5 1.2-3.3 1.9-5.2 2.2m6.1-3c-1-.4-2.1-.7-3.2-.9.5-.9.8-1.8 1.1-2.7 1.3.3 2.7.7 4 1.2-.5.9-1.2 1.7-1.9 2.4m2.4-3.3c-1.4-.5-2.8-1-4.2-1.3.2-.9.4-1.9.4-2.9h4.8c-.1 1.5-.4 2.9-1 4.2m1-5.3h-4.8c0-1-.2-1.9-.4-2.9 1.4-.3 2.8-.7 4.2-1.3.6 1.3.9 2.7 1 4.2m-1.5-5.1c-1.3.5-2.6.9-4 1.2-.3-.9-.7-1.8-1.1-2.7 1.1-.2 2.1-.5 3.2-.9.7.7 1.4 1.5 1.9 2.4m-2.8-3.2c-.9.3-1.9.6-2.8.7-.7-1.1-1.4-2-2.4-2.9 1.9.3 3.7 1 5.2 2.2m-6.3-1.8c.9.8 1.6 1.7 2.3 2.7-.8.1-1.5.2-2.3.2V37zm0 4c1 0 1.9-.1 2.9-.3.5.9.9 1.8 1.2 2.7-1.3.2-2.7.4-4.1.4V41zm0 3.9c1.5 0 2.9-.2 4.4-.4.2.9.3 1.8.4 2.7h-4.7v-2.3zm0 3.3h4.7c0 .9-.2 1.8-.4 2.7-1.4-.3-2.9-.4-4.4-.4v-2.3zm0 3.3c1.4 0 2.7.2 4.1.4-.3.9-.7 1.8-1.2 2.7-1-.2-1.9-.2-2.9-.3v-2.8zm0 3.9c.8 0 1.5.1 2.3.2-.6 1-1.4 1.9-2.3 2.7v-2.9zm-11.6-7.2h4.8c0 1 .2 2 .4 2.9-1.4.3-2.8.7-4.2 1.3-.6-1.3-.9-2.7-1-4.2m1.5 5.1c1.3-.5 2.6-.9 3.9-1.2.3.9.7 1.8 1.1 2.7-1.1.2-2.1.5-3.2.9-.6-.7-1.3-1.5-1.8-2.4m2.8 3.2c.9-.3 1.8-.6 2.8-.7.7 1.1 1.4 2 2.4 2.9-1.9-.3-3.7-1.1-5.2-2.2m6.3 1.8c-.9-.8-1.6-1.7-2.3-2.7.8-.1 1.5-.2 2.3-.2v2.9zm0-3.9c-1 0-1.9.1-2.9.3-.5-.9-.9-1.8-1.2-2.7 1.3-.2 2.7-.4 4.1-.4v2.8zm0-3.9c-1.5 0-2.9.2-4.4.4-.2-.9-.3-1.8-.4-2.7h4.7v2.3zm0-3.4h-4.7c0-.9.2-1.8.4-2.7 1.4.3 2.9.4 4.4.4v2.3zm0-3.3c-1.4 0-2.7-.2-4.1-.4.3-.9.7-1.8 1.2-2.7 1 .2 1.9.2 2.9.3v2.8zm0-3.9c-.8 0-1.5-.1-2.3-.2.7-1 1.4-1.9 2.3-2.7v2.9zm-1.1-3.3c-.9.9-1.7 1.9-2.4 2.9-1-.2-1.9-.4-2.8-.7 1.5-1.1 3.3-1.9 5.2-2.2m-6.1 3c1 .4 2.1.7 3.2.9-.5.9-.8 1.8-1.1 2.7-1.3-.3-2.7-.7-3.9-1.2.4-.9 1.1-1.7 1.8-2.4m-2.4 3.4c1.4.5 2.7 1 4.2 1.3-.2.9-.4 1.9-.4 2.9h-4.8c.1-1.6.4-3 1-4.2"/><path class="st0" d="M231.7 8.9h-.1c-11.4-2.5-23.1-3.7-34.8-3.7s-23.4 1.2-34.9 3.7h-.1c-1.2.3-2.1 1.5-2.1 2.8V18c0 44.5 27.3 62.5 35.7 67 .5.3.9.4 1.4.4.5 0 .9-.1 1.4-.4 8.4-4.5 35.7-22.5 35.7-67v-6.3c0-1.3-.9-2.5-2.2-2.8m-36.5 74.8c-9.5-5.3-28.5-20.2-33.3-50.8 10.9-2.3 22.1-3.5 33.3-3.6v54.4zM225 54.6c-2 4.2-4.3 7.9-6.7 11.2-2.2 2.9-4.4 5.5-6.7 7.8V61.2l-6.7-4.5v22.6c-2.5 1.9-4.8 3.3-6.7 4.4V52.3l6.7 4.5V41.2l6.7 4.5V29.9c2.2.2 4.5.5 6.7.7v19.5l6.7 4.5V31.7c2.2.4 4.5.8 6.7 1.3-1.3 8.2-3.7 15.4-6.7 21.6m-26.7-17.9v-7.5c2.2 0 4.5.1 6.7.2v11.7l-6.7-4.4zM232.8 18c0 4.1-.2 8-.7 11.7-23.2-4.9-47.5-4.9-70.7 0-.5-3.7-.7-7.6-.7-11.7v-6.3c0-.8.6-1.6 1.4-1.8 11.2-2.4 22.8-3.7 34.6-3.7 11.9 0 23.4 1.3 34.6 3.7.8.2 1.4.9 1.4 1.8V18zm-216 91.5c0-6.7-.6-7.5-4.2-7.8l-1.5-.1c-.4-.2-.2-1.3.1-1.5 3.5.1 5.5.2 8.1.2 2.4 0 4.5-.1 6.9-.2.4.2.5 1.3.1 1.5l-.9.1c-3.6.5-3.7 1.3-3.7 7.8V132c0 4.8-.2 9-1.4 11.8-2 4.9-6.3 8.7-11.9 8.7-.7 0-2.6-.1-2.6-1.3 0-1 .9-2.8 2.2-2.8.7 0 1.4.1 2.2.4.8.2 1.7.4 2.5.4 1.3 0 2-.7 2.4-1.6 1.4-2.8 1.6-11.9 1.6-15.2v-22.9zm9.4 14.3c0-10.2 7.6-18.1 18.1-18.1 11.8 0 17.7 8.5 17.7 17.5 0 10.3-7.8 17.9-17.7 17.9-11.3 0-18.1-8.1-18.1-17.3m30.7 1c0-8.4-3.7-17.5-13.4-17.5-5.3 0-12.2 3.6-12.2 14.8 0 7.6 3.7 17.4 13.7 17.4 6.1 0 11.9-4.6 11.9-14.7m16.7-1c-2.4 0-2.6.1-2.6 1.6v7.2c0 5.4.3 6.1 3.1 6.4l1.5.2c.3.2.2 1.1-.1 1.3-2.8-.1-4.5-.2-6.5-.2-2.2 0-3.9.1-5.9.2-.3-.2-.4-1-.1-1.3l.9-.2c2.9-.5 3-1 3-6.4v-18.4c0-5.4-.4-6.2-3-6.4l-1.3-.1c-.3-.2-.2-1.1.1-1.3 2.5.1 4.2.2 6.4.2 2 0 3.7-.1 5.9-.2.3.2.4 1.1.1 1.3l-1 .1c-2.9.3-3.1 1.1-3.1 6.4v5.9c0 1.6.1 1.6 2.6 1.6h14.6c2.4 0 2.5-.1 2.5-1.6v-5.9c0-5.4-.1-6.1-3.1-6.4l-1-.1c-.3-.2-.2-1.1.1-1.3 2.3.1 4.1.2 6.2.2 2 0 3.7-.1 6-.2.3.2.4 1.1.1 1.3l-1.1.1c-3 .3-3.1 1.1-3.1 6.4v18.4c0 5.4.1 6 3.1 6.4l1.2.2c.3.2.2 1.1-.1 1.3-2.4-.1-4.2-.2-6.2-.2-2.1 0-3.9.1-6.2.2-.3-.2-.4-1-.1-1.3l1-.2c3.1-.5 3.1-1 3.1-6.4v-7.2c0-1.5-.1-1.6-2.5-1.6H73.6zm60.3 7.8c0 1.5 0 7.6.2 8.9-.1.3-.4.6-1 .6-.6-.9-2.1-2.7-6.5-7.7l-11.8-13.5c-1.4-1.6-4.8-5.8-5.9-6.9h-.1c-.2.6-.3 1.8-.3 3.3v11.2c0 2.4.1 9 .9 10.6.3.6 1.3.9 2.6 1l1.6.2c.3.4.3 1-.1 1.3-2.3-.1-4.1-.2-6-.2-2.1 0-3.5.1-5.3.2-.4-.3-.4-1-.1-1.3l1.4-.2c1.2-.2 2-.5 2.2-1 .7-1.8.7-8.1.7-10.5v-14.8c0-1.4-.1-2.5-1.1-3.7-.7-.7-1.9-1.1-3.2-1.2l-.9-.1c-.3-.3-.3-1.1.1-1.3 2.1.2 4.8.2 5.7.2.8 0 1.7-.1 2.3-.2 1 2.6 7 9.4 8.7 11.3l4.9 5.6c3.5 3.9 6 6.8 8.4 9.3h.1c.2-.3.2-1.1.2-2.1v-10.9c0-2.4-.1-9-1-10.6-.3-.5-1.1-.8-3.2-1l-.9-.1c-.4-.3-.3-1.1.1-1.3 2.3.1 4.1.2 6 .2 2.2 0 3.5-.1 5.2-.2.4.3.4 1 .1 1.3l-.7.1c-1.6.3-2.6.7-2.9 1.1-.9 1.8-.8 8.2-.8 10.5v11.9zm13.4 9.5c-4.3 0-7-1.3-7.9-1.9-.6-1.1-1.3-4.8-1.4-7.2.3-.4 1-.5 1.2-.2.8 2.6 2.9 7.6 8.8 7.6 4.3 0 6.4-2.8 6.4-5.9 0-2.3-.5-4.8-4.2-7.2l-4.8-3.2c-2.6-1.7-5.5-4.6-5.5-8.8 0-4.9 3.8-8.8 10.4-8.8 1.6 0 3.4.3 4.7.7.7.2 1.4.3 1.8.3.5 1.2.9 4.1.9 6.2-.2.3-1 .5-1.3.2-.7-2.5-2-5.8-6.9-5.8-5 0-6.1 3.3-6.1 5.7 0 3 2.4 5.1 4.3 6.3l4.1 2.6c3.2 2 6.4 5 6.4 9.8 0 5.7-4.3 9.6-10.9 9.6m41.1-20.4c-2.9 0-3 .1-3 1.9v8.5c0 6.4.3 7.2 3.7 7.6l1.8.2c.4.3.2 1.3-.1 1.5-3.3-.1-5.3-.2-7.7-.2-2.6 0-4.6.1-7 .2-.4-.2-.5-1.1-.1-1.5l1-.2c3.4-.6 3.5-1.2 3.5-7.6v-21.8c0-6.4-.4-7.4-3.6-7.6l-1.6-.1c-.4-.2-.2-1.3.1-1.5 3 .1 5 .2 7.6.2 2.4 0 4.4-.1 7-.2.4.2.5 1.3.1 1.5l-1.1.1c-3.5.4-3.6 1.3-3.6 7.6v7c0 1.9.1 1.9 3 1.9h17.3c2.9 0 3-.1 3-1.9v-7c0-6.4-.1-7.3-3.7-7.6l-1.1-.1c-.4-.2-.2-1.3.1-1.5 2.8.1 4.8.2 7.3.2 2.3 0 4.4-.1 7.1-.2.4.2.5 1.3.1 1.5l-1.3.1c-3.5.4-3.6 1.3-3.6 7.6v21.8c0 6.4.1 7.2 3.6 7.6l1.4.2c.4.3.2 1.3-.1 1.5-2.9-.1-5-.2-7.3-.2-2.5 0-4.7.1-7.3.2-.4-.2-.5-1.1-.1-1.5l1.1-.2c3.7-.6 3.7-1.2 3.7-7.6v-8.5c0-1.8-.1-1.9-3-1.9h-17.2z"/><path class="st0" d="M218.3 123.8c0-10.2 7.6-18.1 18.1-18.1 11.8 0 17.7 8.5 17.7 17.5 0 10.3-7.8 17.9-17.7 17.9-11.3 0-18.1-8.1-18.1-17.3m30.7 1c0-8.4-3.7-17.5-13.4-17.5-5.3 0-12.2 3.6-12.2 14.8 0 7.6 3.7 17.4 13.7 17.4 6.1 0 11.9-4.6 11.9-14.7m14.3 7.8c0 5.4.1 6 3.4 6.4l1.4.2c.3.3.2 1.1-.1 1.3-2.9-.1-4.6-.2-6.6-.2-2.1 0-4 .1-6.2.2-.3-.2-.4-1-.1-1.3l1.1-.2c3-.4 3.1-1 3.1-6.4v-18.9c0-4.3-.1-5.2-2.4-5.5l-1.8-.2c-.4-.3-.3-1.1.1-1.3 2.7-.4 5.8-.4 10.1-.4 4.2 0 7.4.6 9.8 2.1 2.3 1.5 4.1 4.1 4.1 7.7 0 4.7-2.9 7.1-5.1 8.1-2.2 1.1-4.9 1.5-7 1.5-.4-.2-.4-.9-.1-1 5.5-1 7.5-4.1 7.5-8.6 0-5-2.9-8.2-8.2-8.2-2.7 0-2.7.2-2.7 1.8v22.9zm21.2-18.4c0-5.4-.1-6.2-3.1-6.4l-1.3-.1c-.3-.2-.2-1.1.1-1.3 2.5.1 4.1.2 6.4.2 2 0 3.7-.1 5.9-.2.3.2.4 1.1.1 1.3l-1 .1c-3 .3-3.1 1.1-3.1 6.4v5.9c0 1 .1 1.9.7 1.9.5 0 1.1-.3 1.4-.6.7-.6 2-1.9 2.6-2.5l5.5-5.5c1-.9 3.5-3.5 4-4.3.3-.4.4-.6.4-.8 0-.2-.2-.4-.9-.5l-1.4-.3c-.4-.4-.3-1 .1-1.3 1.8.1 3.8.2 5.6.2 1.8 0 3.5-.1 5-.2.4.3.4 1 .1 1.3-1.3.1-3.3.6-4.7 1.4-1.4.8-4.3 3.2-7.1 5.9l-4.6 4.3c-.7.7-1.2 1.2-1.2 1.6 0 .4.3.8 1 1.6 4.8 5.6 8.8 10.2 12.7 14.4 1.2 1.2 2.3 1.9 4.1 2.1l1.4.2c.4.3.3 1.1-.1 1.3-1.3-.1-3.3-.2-5.7-.2-2.1 0-3.9.1-6.2.2-.4-.1-.5-1-.2-1.3l1.2-.2c.7-.1 1.2-.3 1.2-.5 0-.3-.4-.7-.7-1.2-1-1.2-2.3-2.6-4.2-4.8l-4.1-4.6c-2.9-3.3-3.7-4.3-4.9-4.3-.8 0-.9.7-.9 2.5v6.6c0 5.4.1 6.1 2.9 6.4l1.4.2c.3.2.2 1.1-.1 1.3-2.5-.1-4.2-.2-6.2-.2-2.1 0-3.8.1-5.9.2-.3-.2-.4-.9-.1-1.3l1-.2c2.7-.4 2.8-1 2.8-6.4v-18.3zm34.9.1c0-5.4-.1-6.3-3.1-6.5l-1.3-.1c-.3-.2-.2-1.1.1-1.3 2.5.1 4.3.2 6.4.2 2 0 3.8-.1 6.3-.2.3.2.4 1.1.1 1.3l-1.3.1c-3 .3-3.1 1.1-3.1 6.5v18.2c0 5.4.1 6.2 3.1 6.5l1.3.2c.3.2.2 1.1-.1 1.3-2.5-.1-4.3-.2-6.3-.2-2.1 0-3.9.1-6.4.2-.3-.2-.4-1-.1-1.3l1.3-.2c3-.4 3.1-1.1 3.1-6.5v-18.2zm44 17.3c0 1.5 0 7.6.2 8.9-.1.3-.4.6-1 .6-.6-.9-2.1-2.7-6.5-7.7l-11.8-13.5c-1.4-1.6-4.8-5.8-5.9-6.9h-.1c-.2.6-.3 1.8-.3 3.3v11.2c0 2.4.1 9 .9 10.6.3.6 1.3.9 2.6 1l1.6.2c.3.4.3 1-.1 1.3-2.3-.1-4.1-.2-5.9-.2-2.1 0-3.5.1-5.3.2-.4-.3-.4-1-.1-1.3l1.4-.2c1.2-.2 2-.5 2.2-1 .7-1.8.7-8.1.7-10.5v-14.8c0-1.4 0-2.5-1.1-3.7-.7-.7-1.9-1.1-3.2-1.2l-.9-.1c-.3-.3-.3-1.1.1-1.3 2.1.2 4.8.2 5.7.2.8 0 1.7-.1 2.3-.2 1 2.6 7 9.4 8.7 11.3l4.9 5.6c3.5 3.9 6 6.8 8.4 9.3h.1c.2-.3.2-1.1.2-2.1v-10.9c0-2.4-.1-9-1-10.6-.3-.5-1.1-.8-3.1-1l-.9-.1c-.4-.3-.3-1.1.1-1.3 2.3.1 4.1.2 6 .2 2.2 0 3.5-.1 5.2-.2.4.3.4 1 .1 1.3l-.7.1c-1.6.3-2.7.7-2.9 1.1-.9 1.8-.8 8.2-.8 10.5v11.9zm13.4 9.5c-4.3 0-7-1.3-7.9-1.9-.6-1.1-1.3-4.8-1.4-7.2.3-.4 1-.5 1.2-.2.8 2.6 2.9 7.6 8.8 7.6 4.3 0 6.4-2.8 6.4-5.9 0-2.3-.5-4.8-4.2-7.2l-4.8-3.2c-2.5-1.7-5.5-4.6-5.5-8.8 0-4.9 3.8-8.8 10.4-8.8 1.6 0 3.4.3 4.7.7.7.2 1.4.3 1.8.3.5 1.2.9 4.1.9 6.2-.2.3-1 .5-1.3.2-.7-2.5-2-5.8-6.9-5.8-5 0-6.1 3.3-6.1 5.7 0 3 2.4 5.1 4.3 6.3l4.1 2.6c3.2 2 6.4 5 6.4 9.8-.1 5.7-4.3 9.6-10.9 9.6"/></svg>