<svg id="Layer_1" data-name="Layer 1" xmlns="http://www.w3.org/2000/svg" viewBox="0 0 500.16 318.1"><title>gplus</title><g id="googleplus"><path id="Union_1" data-name="Union 1" d="M97.2,396.5a158.23,158.23,0,0,1-50.8-33.9,161.55,161.55,0,0,1-33.9-50.8A160,160,0,0,1,46.4,137.4a161.55,161.55,0,0,1,50.8-33.9A156.33,156.33,0,0,1,159,90.9q62.1,0,106.5,41.7L222.3,174c-16.9-16.3-38.1-24.5-63.4-24.5A94.4,94.4,0,0,0,109.5,163a101.63,101.63,0,0,0,0,174,95.34,95.34,0,0,0,49.4,13.5,106.32,106.32,0,0,0,33.1-5c10.1-3.3,18.3-7.5,24.8-12.5a88.31,88.31,0,0,0,17-17,79.6,79.6,0,0,0,10.6-18,75.83,75.83,0,0,0,4.6-16.1H158.7V227.2H308.8a138.42,138.42,0,0,1,2.6,26.5q0,45.15-18.9,80.4a135.28,135.28,0,0,1-53.8,55.1q-35,19.8-80.1,19.8A155.73,155.73,0,0,1,97.2,396.5Zm311.9-78.4V272.7H363.7V227.1h45.4V181.7h45.6v45.4h45.4v45.6H454.7v45.4H409.1Zm-250-90.9h0Z" transform="translate(0.06 -90.9)" style="fill:#315879"/></g></svg>