<svg xmlns="http://www.w3.org/2000/svg" viewBox="0 0 502 502">
  <path fill="#315879" d="M414.48 192.559c-5.708-12.287-5.72-26.534-.034-39.088 5.58-12.315 6.635-24.022 3.136-34.796-3.561-10.955-11.492-19.918-23.574-26.638-11.84-6.585-20.224-18.104-23.002-31.604-2.727-13.243-8.754-23.333-17.916-29.99-9.576-6.958-21.63-9.501-35.829-7.557-13.144 1.797-26.702-2.215-37.202-11.012C270.657 3.995 260.565 0 250.063 0c-11.164 0-21.832 4.493-31.707 13.354-10.002 8.974-23.257 13.271-36.377 11.783-13.49-1.53-24.982 1.085-34.171 7.759-9.03 6.562-15.021 16.467-17.803 29.441-2.817 13.138-11.02 24.405-22.504 30.914-11.808 6.692-19.574 15.562-23.084 26.362-3.449 10.617-2.473 22.151 2.903 34.282 5.442 12.284 5.43 26.222-.035 38.236-5.62 12.354-6.689 24.096-3.181 34.896 3.449 10.616 11.02 19.374 22.499 26.029 11.625 6.739 19.807 18.021 22.447 30.954 2.714 13.298 8.75 23.426 17.939 30.103 4.765 3.462 10.197 5.827 16.22 7.091V492c0 3.867 2.229 7.388 5.726 9.04 3.495 1.653 7.63 1.143 10.62-1.312L251 441.069l71.443 58.659c1.824 1.498 4.075 2.271 6.348 2.271 1.45 0 2.91-.315 4.272-.96 3.496-1.652 5.726-5.173 5.726-9.04V323.404c5.583-1.315 10.649-3.59 15.119-6.837 9.318-6.771 15.392-17.083 18.05-30.651 2.604-13.296 10.969-24.829 22.949-31.643 11.753-6.686 19.486-15.536 22.987-26.308 3.559-10.954 2.41-22.867-3.414-35.406zM318.788 470.85l-61.443-50.448c-1.845-1.515-4.095-2.271-6.346-2.271s-4.501.757-6.346 2.271L183.21 470.85V321.953c12.424.091 24.285 4.843 33.058 13.376 10.442 10.157 21.813 15.308 33.795 15.308 11.521 0 22.495-4.773 32.618-14.188 9.667-8.988 22.777-13.389 36.107-12.2V470.85zm80.085-249.065c-1.91 5.879-6.572 10.961-13.854 15.104-17.048 9.696-28.962 26.165-32.688 45.182-1.655 8.45-5.08 14.612-10.178 18.316-3.655 2.655-8.284 4.11-13.756 4.326-2.012.076-4.138-.007-6.331-.251-19.492-2.18-38.81 4.145-53.003 17.34-6.304 5.862-12.696 8.835-19 8.835-6.593 0-13.271-3.244-19.85-9.644-12.61-12.267-29.63-19.055-47.385-19.055-1.832 0-3.674.072-5.517.218-1.306.104-2.632.15-3.942.125-5.86-.093-10.781-1.556-14.624-4.348-5.018-3.646-8.415-9.676-10.099-17.923-3.783-18.524-15.451-34.654-32.012-44.256-7.085-4.107-11.63-9.122-13.509-14.906-1.916-5.898-1.121-12.773 2.364-20.436 7.828-17.21 7.87-37.117.115-54.62-3.317-7.486-4.047-14.215-2.167-19.999 1.916-5.898 6.601-10.992 13.924-15.143 16.449-9.322 28.185-25.404 32.197-44.121 1.718-8.007 5.083-13.879 10.004-17.454 5.017-3.646 11.802-5.01 20.165-4.066 18.787 2.129 37.733-3.984 51.983-16.77 6.094-5.468 12.268-8.24 18.351-8.24 5.677 0 11.446 2.423 17.149 7.203 14.813 12.412 34.048 18.065 52.761 15.497 8.912-1.218 16.1.1 21.36 3.922 5.001 3.634 8.393 9.638 10.082 17.844 3.955 19.21 15.935 35.63 32.87 45.05 7.523 4.185 12.326 9.346 14.274 15.34 1.91 5.88 1.126 12.73-2.332 20.362-8.092 17.865-8.051 38.191.113 55.767 3.63 7.809 4.482 14.808 2.535 20.801z"/>
  <path fill="#315879" d="M251 54.878c-66.412 0-120.441 54.029-120.441 120.44 0 66.412 54.029 120.441 120.441 120.441s120.441-54.029 120.441-120.441c0-66.411-54.029-120.44-120.441-120.44zm0 220.882c-55.384 0-100.441-45.058-100.441-100.441S195.617 74.879 251 74.879s100.441 45.058 100.441 100.44c0 55.383-45.058 100.441-100.441 100.441z"/>
  <path fill="#315879" d="M213.214 100.344c-28.471 14.373-46.157 43.102-46.157 74.975 0 5.522 4.478 10 10 10s10-4.478 10-10c0-24.281 13.477-46.169 35.171-57.121 4.93-2.489 6.909-8.503 4.42-13.434-2.49-4.932-8.505-6.91-13.434-4.42zm62.157-5.372c-7.875-2.386-16.075-3.596-24.371-3.596-5.522 0-10 4.478-10 10s4.478 10 10 10c6.33 0 12.579.921 18.572 2.736.967.293 1.942.433 2.903.433 4.291 0 8.258-2.784 9.566-7.104 1.602-5.285-1.384-10.868-6.67-12.469z"/>
</svg>
