<svg xmlns="http://www.w3.org/2000/svg" viewBox="0 0 512 512">
  <path d="M67.155 244.034H55.649c-14.112 0-25.554-11.44-25.554-25.554v-24.344c0-14.112 11.44-25.554 25.554-25.554h11.506c12.598 0 22.809 10.213 22.809 22.809v29.832c.001 12.598-10.211 22.811-22.809 22.811z" fill="#ffbaa8"/>
  <path d="M109.541 330.996H10.52V283.9c0-22.017 17.849-39.866 39.866-39.866h19.288c22.017 0 39.866 17.849 39.866 39.866v47.096z" fill="#0bbbda"/>
  <path d="M431.278 244.034h-11.506c-14.113 0-25.554-11.44-25.554-25.554v-24.344c0-14.112 11.44-25.554 25.554-25.554h11.506c12.598 0 22.809 10.213 22.809 22.809v29.832c.002 12.598-10.211 22.811-22.809 22.811z" fill="#ffbaa8"/>
  <path d="M473.664 330.996h-99.021V283.9c0-22.017 17.849-39.866 39.866-39.866h19.288c22.017 0 39.866 17.849 39.866 39.866v47.096zm-322.043 38.058v-56.282c0-32.391 29.553-49.181 62.115-49.181h56.713c32.562 0 62.115 16.79 62.115 49.181v56.282H151.621z" fill="#0bbbda"/>
  <path d="M245.511 263.591h-6.838c-21.643 0-34.979-17.544-34.979-39.187v-18.41c0-21.643 13.336-39.187 34.979-39.187h6.838c21.643 0 34.979 17.544 34.979 39.187v18.41c0 21.642-13.336 39.187-34.979 39.187z" fill="#ffbaa8"/>
  <g fill="#ecf0f1">
    <path d="M275.685 263.591l-33.593 52.775-33.593-52.775z"/>
    <path d="M378.611 328.575c16.776-25.629 26.54-56.262 26.54-89.18 0-90.055-73.004-163.059-163.059-163.059S79.033 149.341 79.033 239.396s73.004 163.059 163.059 163.059c31.919 0 61.689-9.18 86.833-25.03l123.286 123.286 49.268-49.268-122.868-122.868zm-136.519 26.54c-63.808 0-115.719-51.912-115.719-115.719s51.912-115.719 115.719-115.719 115.719 51.912 115.719 115.719S305.9 355.115 242.092 355.115z"/>
  </g>
  <g fill="#231f20">
    <path d="M508.919 444.004L406.43 341.516h67.234c5.809 0 10.52-4.711 10.52-10.52v-47.097c0-18.725-10.276-35.086-25.477-43.771 3.717-5.376 5.902-11.889 5.902-18.905v-29.831c0-18.378-14.952-33.329-33.33-33.329h-11.506c-7.815 0-15.049 2.509-20.963 6.749-27.947-58.489-87.689-98.996-156.719-98.996-68.639 0-128.097 40.049-156.243 98.005-5.336-3.629-11.769-5.758-18.694-5.758H55.649c-19.891 0-36.074 16.183-36.074 36.073v24.344c0 7.877 2.545 15.168 6.846 21.107C10.699 248.124 0 264.786 0 283.899v47.097c0 5.809 4.71 10.52 10.52 10.52h91.305c31.596 43.28 82.699 71.459 140.268 71.459 29.986 0 59.261-7.693 85.186-22.32L444.773 508.15c2.055 2.053 4.747 3.081 7.439 3.081s5.384-1.028 7.439-3.081l49.268-49.268c4.108-4.109 4.108-10.77 0-14.878zm-45.775-123.528h-67.571c10.825-20.448 17.412-42.808 19.419-65.922h18.805c16.182 0 29.346 13.165 29.346 29.346v36.576zm-43.371-141.373h11.506c6.776 0 12.29 5.512 12.29 12.289v29.831c0 6.776-5.513 12.29-12.29 12.29h-11.506c-1.472 0-2.891-.222-4.236-.618-.605-16.344-3.478-32.114-8.317-47.01 2.691-4.081 7.31-6.782 12.553-6.782zM40.615 194.136c0-8.29 6.744-15.033 15.034-15.033h11.506c4.264 0 8.025 2.184 10.23 5.49-5.147 15.432-8.178 31.821-8.757 48.823-.484.058-.973.097-1.473.097H55.649c-8.29 0-15.034-6.744-15.034-15.034v-24.343zM21.04 320.476v-36.577c0-16.182 13.165-29.346 29.346-29.346h18.796c2.055 23.638 8.865 45.932 19.471 65.922H21.04v.001zm431.171 165.357L336.363 369.985c-2.031-2.03-4.725-3.081-7.442-3.081-1.934 0-3.88.531-5.607 1.621-24.293 15.315-52.379 23.409-81.222 23.409-84.11 0-152.539-68.429-152.539-152.539S157.982 86.856 242.092 86.856s152.539 68.429 152.539 152.539c0 29.765-8.583 58.611-24.822 83.419-2.728 4.168-2.159 9.677 1.363 13.2l115.429 115.429-34.39 34.39z"/>
    <path d="M242.092 113.156c-69.608 0-126.239 56.631-126.239 126.239s56.631 126.239 126.239 126.239 126.239-56.631 126.239-126.239S311.7 113.156 242.092 113.156zm0 21.04c58.008 0 105.199 47.191 105.199 105.199 0 16.732-3.933 32.561-10.913 46.62-9.544-17.402-28.698-29.24-53.462-32.206 5.151-8.074 8.094-18.13 8.094-29.405v-18.41c0-28.803-19.135-49.707-45.499-49.707h-6.838c-26.364 0-45.499 20.904-45.499 49.707v18.41c0 11.275 2.943 21.331 8.094 29.405-24.764 2.967-43.919 14.805-53.462 32.206-6.98-14.06-10.913-29.888-10.913-46.62 0-58.007 47.192-105.199 105.199-105.199zm-27.878 90.209v-18.41c0-14.268 7.563-28.667 24.459-28.667h6.838c16.896 0 24.459 14.399 24.459 28.667v18.41c0 14.268-7.563 28.667-24.459 28.667h-6.838c-16.896 0-24.459-14.399-24.459-28.667zm42.305 49.706l-14.427 22.664-14.426-22.664h28.853zm-14.427 70.484c-31.805 0-60.356-14.188-79.663-36.566 2.466-19.947 20.521-30.536 40.74-33.219l30.048 47.207c1.931 3.034 5.279 4.871 8.875 4.871 3.597 0 6.944-1.837 8.875-4.871l30.048-47.207c20.219 2.683 38.275 13.272 40.741 33.219-19.308 22.377-47.859 36.566-79.664 36.566zm0-302.798c5.809 0 10.52-4.711 10.52-10.52V11.289c0-5.809-4.711-10.52-10.52-10.52-5.81 0-10.52 4.711-10.52 10.52v19.988c0 5.809 4.71 10.52 10.52 10.52zm94.066 25.204c1.657.956 3.465 1.412 5.249 1.412 3.636 0 7.172-1.887 9.121-5.262l9.994-17.311c2.906-5.032 1.181-11.466-3.85-14.37-5.034-2.906-11.467-1.18-14.37 3.85l-9.994 17.311c-2.906 5.032-1.182 11.466 3.85 14.37zM133.656 63.15c1.948 3.375 5.484 5.262 9.12 5.262 1.784 0 3.594-.456 5.251-1.412 5.032-2.905 6.756-9.339 3.85-14.37l-9.994-17.311c-2.906-5.032-9.339-6.757-14.37-3.85-5.032 2.905-6.756 9.339-3.85 14.37l9.993 17.311z"/>
  </g>
</svg>
