<svg xmlns="http://www.w3.org/2000/svg" width="572.6" height="572.6">
  <path fill="#315879" d="M464.529 317.111c0-75.049-40.443-140.178-99.302-172.021-4.445-31.794-31.736-56.355-64.728-56.355-7.368 0-14.432 1.279-21.047 3.529V63.096c0-7.21-5.456-13.089-12.459-13.868v-22.74c0-.536-.109-1.041-.155-1.559h11.323c5.151 0 9.341-4.189 9.341-9.353V9.347c0-5.164-4.189-9.347-9.341-9.347h-72.19c-5.163 0-9.353 4.183-9.353 9.347v6.229c0 5.164 4.189 9.353 9.353 9.353h11.311c-.052.518-.159 1.022-.159 1.559v22.746c-6.999.779-12.455 6.646-12.455 13.868v205.664c0 7.614 6.064 13.771 13.63 13.99v94.297h.484c2.195 2.666 11.779 7.014 23.27 7.014 11.512 0 21.096-4.348 23.285-7.014h.472v-94.297c7.563-.207 13.643-6.37 13.643-13.984v-52.68c6.615 2.25 13.679 3.528 21.047 3.528 23.468 0 44.024-12.458 55.582-31.063 39.786 26.536 66.378 74.229 66.378 128.554 0 33.686-10.236 64.825-27.469 89.949l-46.972 18.761v-1.225H161.826v20.247H348.02v-8.957l35.451-14.163c-25.245 28.412-60.636 46.137-99.776 46.137v.348h-41.629v48.299H108.07V572.6h292.146v-56.094h-74.008v-12.008c79.257-20.447 138.321-96.677 138.321-187.387zM300.5 205.597c-28.354 0-51.42-23.065-51.42-51.417 0-28.351 23.066-51.417 51.42-51.417 22.457 0 41.553 14.499 48.543 34.62-6.126-2.539-12.386-4.752-18.81-6.573-6.924-8.811-17.658-14.489-29.745-14.489-20.911 0-37.857 16.953-37.857 37.859 0 20.907 16.953 37.854 37.857 37.854 12.921 0 24.319-6.491 31.164-16.38 4.231 1.696 8.354 3.611 12.373 5.73-9.085 14.51-25.172 24.213-43.525 24.213z"/>
</svg>
