<svg xmlns="http://www.w3.org/2000/svg" viewBox="0 0 683.49731 650.81702" version="1">
  <g fill="#b1b1b1" stroke="b1b1b1">
    <path fill="#efd9ab" fill-rule="evenodd" stroke="none" d="M6054.2477 6611.1728L5029.638 4485.69l2209.1651 937.6864-588.077 888.7109z" transform="matrix(.10017 0 0 -.1 -96.553 717.9)"/>
    <path fill="#efd9ab" fill-rule="evenodd" stroke="none" d="M5138.3474 5682.3094c-887.0762-1916.4196-878.7076-1924.7882-878.7076-1924.7882l2468.75 1020.9746 276.1653-1631.8856-217.5848-535.5932-1389.1949-92.0552-1205.0847-477.0127-535.5933-510.4873-753.1779 259.428-259.428 502.1187-560.6991-25.1059-627.6483 744.8092 209.2161 1205.0848 661.1228 920.5508 1615.1484 903.8136 301.2712-234.322z" transform="matrix(.10017 0 0 -.1 -96.553 717.9)"/>
    <path d="M6256 7040c-37-77-86-181-110-232s-80-167-124-257l-82-163 43 4c61 7 100-16 222-132 83-78 110-98 123-91 24 12 51 0 65-29 10-20 28-29 94-46 45-11 99-33 120-47 37-25 103-102 103-119 0-4 7-8 15-8 22 0 78-30 71-37-7-8-86 18-86 27 0 4-30 6-67 3-106-7-113-9-113-42 0-27 4-30 53-41 28-7 66-10 82-8l30 4-25 11c-23 9-21 10 18 10 26 0 42-4 42-12 0-13 22-25 91-49 61-22 118-72 152-135 16-28 25-51 20-51-4 0-43 7-86 15-116 22-127 21-127-14 0-26 5-31 48-45 26-9 72-21 102-27 78-16 151-51 197-93 40-36 41-36 77-21 20 8 36 20 36 25 0 6 7 10 15 10s34 9 58 19c23 10 116 50 207 89 91 38 188 80 216 92l51 23-45 95c-116 246-316 540-496 729-30 33-43 40-53 31-10-8-13-6-13 11 0 11-5 21-11 21-5 0-8-4-4-9 3-5 1-12-4-15-13-8-21 18-14 46 6 22 6 22-10 6-9-9-17-21-17-27 0-18-18-21-34-5-9 8-16 28-16 43s-5 32-12 39-9 12-4 12c4 0 14-7 23-15 8-8 19-12 25-9 5 4-5 21-23 40-36 37-49 42-49 19 0-8-4-15-10-15-5 0-10 13-10 30 0 25-13 40-92 103-99 78-282 207-294 207-4 0-15 6-23 14-19 17-98 62-202 116l-76 39zm21-5c-3-23-17-48-17-29 0 15 12 54 17 54 2 0 2-11 0-25zm193-20c-39.5856-111.3506-20.5165-55.2939-20 11 0 21 4 33 10 29 6-3 10-21 10-40zm90 19c0-8-4-12-10-9-5 3-10 10-10 16 0 5 5 9 10 9 6 0 10-7 10-16zm-200-124c-41.5709-29.9866-.711 95.0239 6 70 97.2409-97.7081 9.5062-42.9576-6-70zm-100 20c0-5 9-10 20-10s20-4 20-9c0-15-18-23-25-11-4 6-10 8-15 5-4-3-10 4-13 15s-1 20 4 20 9-4 9-10zm520-86c0-8-4-14-10-14-5 0-10 9-10 21 0 11 5 17 10 14 6-3 10-13 10-21zm45-22c-3-3-11 0-18 7-9 10-8 11 6 5 10-3 15-9 12-12zm-540-72c-3 6-1 10 4 10 17.1175-6.742 10.8969-28.7434-4-10zm-35-40c0-5-4-10-10-10-5 0-10 5-10 10 0 6 5 10 10 10 6 0 10-4 10-10zm-60-24c0-17-25-27-46-19-14 5-12 8 7 19 31 17 39 17 39 0zm90-156c0-5-2-10-4-10-3 0-8 5-11 10-3 6-1 10 4 10 6 0 11-4 11-10zm593-224c3-8 1-17-6-19-9-3-9-8 1-18 6-7 12-17 12-21 0-13-45-9-66 6-18 14-18 15 6 25 18 7 20 10 8 10-18 1-23 12-11 24 12 13 51 7 56-7zm-483-36c0-5-8-10-17-10-15 0-16 2-3 10 19 12 20 12 20 0zm375-30c4-6-5-10-19-10s-26 5-26 10c0 6 9 10 19 10 11 0 23-4 26-10zm-17-32c-3-7-12-12-21-12-9 1-24 2-33 3-28 2-4 21 27 21 20 0 29-4 27-12zm282-190c0-16-3-19-11-11-6 6-8 16-5 22 11 17 16 13 16-11zm-277-75c-7-2-19-2-25 0-7 3-2 5 12 5s19-2 13-5zm325-78c-8-9-47 8-53 23-10 27 17 32 38 6 11-14 17-27 15-29zm-322 0c25-19 15-19-27 0-25 10-29 14-13 15 11 0 29-7 40-15zm297-266c4-16 3-18-9-8-16 13-19 29-5 29 5 0 11-9 14-21zm-33-70c0-5-4-9-10-9-5 0-10 7-10 16 0 8 5 12 10 9 6-3 10-10 10-16zm244-54c-4-8-10-12-15-9-11 6-2 24 11 24 5 0 7-7 4-15zM3429 5208c-44-61-113-202-138-282-16-53-21-94-21-186 0-132 9-170 40-170 11 0 20 3 21 8 0 4 2 18 4 32 1 14 6 68 9 120 14 181 28 227 117 376 57 95 65 144 24 144-18 0-34-12-56-42zm-49-168c0-5-5-10-11-10-5 0-7 5-4 10 3 6 8 10 11 10 2 0 4-4 4-10zM2506 4662c-8-13-5-106 5-147 5-22 19-61 31-87 18-41 26-48 50-48 25 0 28 4 28 33 0 38-53 190-58 165-5-26-21-22-33 9-9 23-7 30 13 45s21 18 5 18c-10 0-15 5-12 10 3 6-1 10-9 10s-17-3-20-8zM2181 4196c-7-8-14-35-16-61-2-25-6-54-10-64-3-11 1-24 11-32 13-11 18-11 21-1 3 6 10 12 17 12 15 0 42 83 42 125-1 25-6 31-27 33-14 2-31-4-38-12zM1635 4890c-3-5-1-10 4-10 6 0 11 5 11 10 0 6-2 10-4 10-3 0-8-4-11-10zM2470 2059c0-5 5-7 10-4 6 3 10 8 10 11 0 2-4 4-10 4-5 0-10-5-10-11zM5167 1839c7-7 15-10 18-7s-2 9-12 12c-14 6-15 5-6-5zM5017 1795c-2-15 0-24 6-22 12 4 18 47 6 47-3 0-9-11-12-25z" transform="matrix(.10017 0 0 -.1 -96.553 717.9)"/>
    <path d="M5840 6133c0-28 3-30 63-41 62-12 328-42 373-42 20 0 24 5 24 29 0 16-6 33-12 39-23 19-131 33-290 39l-158 5v-29zm100-3c0-5-4-10-10-10-5 0-10 5-10 10 0 6 5 10 10 10 6 0 10-4 10-10zM5663 5806l-16-35 39-44c41-46 53-66 78-129 12-31 20-38 42-38 27 0 27 0 21 60l-5 60h41c83 0 307-31 363-50 32-11 78-32 103-47s52-26 60-24c9 1 12-3 8-13-4-9 5-24 23-39 16-14 27-27 25-29-3-2 8-38 24-79 26-68 31-74 60-77 28-3 31-1 31 25 0 15-4 43-9 61-12 40-5 41 73 1 85-43 113-72 121-125 5-38 25-73 25-45 0 6 7 8 15 5 8-4 15-2 15 2 0 5 4 15 9 23 7 11 13 12 23 3 10-8 24-6 57 9 43 19 44 20 25 37-82 75-232 163-318 187-48 13-71 28-130 84-40 38-94 78-120 90-58 25-179 48-301 56-163 11-219 23-289 66-36 21-67 39-71 39-3 0-13-15-22-34z" transform="matrix(.10017 0 0 -.1 -96.553 717.9)"/>
    <path d="M5953 5608c-27-30-36-76-28-140 5-36 10-47 17-37s7 8 3-8c-4-13 0-35 9-50 29-53 58-168 63-254 5-73 2-92-16-133-11-27-21-59-21-72v-23l42 19c50 22 57 39 65 146 6 86-13 244-29 244-5 0-6 5-3 10 11 17-27 109-47 116-19 6-25 34-8 34 6 0 10 7 10 15s-6 12-14 9c-9-4-6 10 10 43 31 60 29 97-6 101-17 2-33-5-47-20zM5523 5408c24-196 30-267 24-282s-13-12-59 22c-75 56-96 66-113 52-30-25-24-49 20-80 62-43 109-102 128-161 22-66 21-81-3-112-24-30-83-51-205-72-147-26-159-30-179-71-9-20-15-39-12-41 10-10 76 8 76 20 0 9 2 9 8 0s33-8 117 8c61 11 146 23 190 28 84 9 188 46 182 65-2 6-20 15-39 21-20 5-39 13-43 16-3 4-7 132-8 285-2 258-4 281-22 312-13 22-27 32-43 32-22 0-24-3-19-42zm-363-728c0-5-5-10-11-10-5 0-7 5-4 10 3 6 8 10 11 10 2 0 4-4 4-10zM4290 5160c0-21 5-30 16-30s14 5 10 16c-3 9-6 22-6 30s-4 14-10 14c-5 0-10-13-10-30zM5660 4342l-85-37-41-121c-115-341-353-616-562-650-54-8-74 8-102 83-42 114-36 215 15 263 14 13 25 32 25 42s5 18 10 18c6 0 10-6 10-12 0-9 3-9 8-2 4 6 14 13 22 17s42 24 75 45c47 29 60 43 60 62 0 23-3 25-40 22-21-2-70-18-107-34-61-28-68-34-66-57 2-20-2-27-19-29-14-2-37-25-63-64-36-54-40-67-40-122 0-79 23-166 61-233 17-30 28-60 25-68-8-22-122-103-198-141s-134-44-167-16c-12 9-37 58-55 108-60 162-97 214-152 214-29 0-34-3-34-23 0-13 18-51 41-85 68-106 105-213 97-285-3-23-17-71-32-107s-28-73-29-82-9-23-18-30-31-35-49-63c-18-27-44-62-58-77s-21-31-17-38c5-8 3-11-6-8-16 6-49-43-49-72 0-16 7-20 30-20s41 11 76 48c88 91 213 302 215 362 0 17 5 9 13-22 7-25 20-58 30-72 26-41 131-113 243-168 55-27 109-58 119-69 14-15 26-19 49-15 28 5 29 5 11-9-19-15-19-15 2-38 12-13 19-27 15-30-10-11 1-8 41 8 20 9 45 14 54 13 10-2 17 3 17 12 0 10-9 14-25 13-14-1-20 0-13 3 6 3-9 26-38 55-73 75-79 86-69 140 23 119 33 266 20 274-5 3-18 2-28-4-13-7-24-42-45-142-14-73-30-136-35-141-4-4-25 1-46 13-21 11-40 18-43 16-2-3-15 5-27 17-13 11-46 37-75 56-52 35-97 92-87 109 3 5 36 21 73 36 74 29 143 66 167 90 8 9 18 15 21 14 4 0 41 24 83 56 133 99 170 110 187 54 4-13 16-19 36-19 23 0 29 4 29 23 0 35 35 82 92 125 141 104 318 365 387 570 43 127 67 164 122 192 29 16 39 26 39 45 0 14-3 25-7 25-5 0-46-17-93-38zm-740-368c0-8-4-14-10-14-5 0-10 9-10 21 0 11 5 17 10 14 6-3 10-13 10-21zm27-6c-3-8-6-5-6 6-1 11 2 17 5 13 3-3 4-12 1-19zm-77-32c0-3-4-8-10-11-5-3-10-1-10 4 0 6 5 11 10 11 6 0 10-2 10-4zm30-6c0-5-4-10-10-10-5 0-10 5-10 10 0 6 5 10 10 10 6 0 10-4 10-10zm-30-40c0-5-5-10-11-10-5 0-7 5-4 10 3 6 8 10 11 10 2 0 4-4 4-10zm220-410c0-5-4-10-10-10-5 0-10 5-10 10 0 6 5 10 10 10 6 0 10-4 10-10zm-200-275c0-8-4-15-10-15-5 0-7 7-4 15 4 8 8 15 10 15s4-7 4-15zm-640-340c0-30-24-43-44-23-18 18-3 48 24 48 15 0 20-7 20-25z" transform="matrix(.10017 0 0 -.1 -96.553 717.9)"/>
    <path d="M6053 4133c-127-187-149-242-208-527-19-93-36-170-37-171-2-1-46-7-98-13-100-13-132-11-232 13-35 8-80 15-100 15-37 0-38-1-38-35 0-50 20-55 256-66 111-5 213-13 228-19 29-11 28-6 30-145 1-97 2-100 25-103 13-2 28 2 32 10 5 7 9 72 9 145 0 94 4 134 13 140 6 4 107 8 222 8 203 0 211 1 248 23 69 43 89 82 118 227 6 33 20 82 30 108 27 69 25 79-13 75-43-4-73-57-89-154-14-85-40-136-92-178l-39-31-213-3-213-4 20 109c37 209 113 451 125 401 3-11 14-18 28-18 20 0 24 6 30 53 4 28 20 82 37 118 33 74 34 102 2 107-17 2-34-16-81-85zm97-723c0-5-5-10-11-10-5 0-7 5-4 10 3 6 8 10 11 10 2 0 4-4 4-10zM6610 3559c-41-26-50-36-50-66s27-30 99-2c53 20 55 20 80 2 33-24 79-117 75-151-1-15 3-30 9-35 9-7 9-10 0-14-9-3-13-34-13-104 0-61-5-112-14-132-15-37-75-99-91-94-5 2-21 20-34 40-17 26-32 37-49 37-24 0-24-1-18-58 6-50 3-64-21-112-19-37-42-64-70-83-41-27-59-66-30-68 6 0 23-2 37-4 36-4 58 10 125 79 33 34 87 82 120 106 75 57 92 87 106 185 16 117 5 366-18 412-28 57-63 77-141 81-55 2-73-1-102-19zM6342 3188c-18-37-58-91-95-128l-64-65-38 27c-23 17-51 28-71 28-31 0-34-3-34-29 0-23 9-36 43-60 28-21 53-52 77-98 29-56 40-68 60-68 24 0 25 3 25 60 0 64 10 89 51 130 14 14 23 29 20 34s3 11 13 14c10 2 33 26 51 52 52 76 54 164 4 165-6 0-25-28-42-62zm-105-194c-3-3-12-4-19-1-8 3-5 6 6 6 11 1 17-2 13-5zM5131 3146c3-45-12-76-37-76-23 0-34-36-34-114 0-74 1-76 24-76 22 0 26 7 37 56 7 31 20 59 29 64s71 16 136 25c229 31 309 46 351 66 36 17 43 26 43 50 0 25-4 29-27 29-16 0-64-12-108-26-57-19-111-28-188-31-121-7-148 1-168 48-8 21-18 29-36 29-23 0-24-3-22-44zM5503 2968c-6-7-20-32-32-55-26-52-72-88-145-113-57-20-172-37-239-35-20 1-37-2-37-7 0-4 5-8 10-8 6 0 10-7 10-15s7-15 16-15c10 0 14-6 10-15-15-40 97-43 207-6 161 56 256 143 260 242 2 30-1 34-24 37-14 2-30-3-36-10zm7-132c0-3-4-8-10-11-5-3-10-1-10 4 0 6 5 11 10 11 6 0 10-2 10-4zM4766 2644c-27-7-78-16-113-20-58-6-63-8-63-30 0-24 2-24 93-24 80 0 177 17 209 36 18 11-7 34-37 34-18 0-35 4-37 8-1 5-25 3-52-4zM4920 2641c-18-5-21-9-11-15 8-5 19-2 29 8 9 9 14 16 12 15-3-1-16-4-30-8zM1396 2627c3-10 9-15 12-12s0 11-7 18c-10 9-11 8-5-6zM1410 2575c0-8 5-15 10-15 6 0 10 7 10 15s-4 15-10 15c-5 0-10-7-10-15zM3239 2433c-8-54 14-125 56-183 20-28 80-85 133-128 53-42 129-107 168-144 55-53 75-66 92-61 16 4 22 13 22 31 0 20-26 52-110 134-61 60-115 106-120 103-6-3-10-3-10 2 0 15-139 153-154 153-25 0-46 12-40 22 3 5-2 16-12 24-18 14-18 15 3 9 26-7 39 10 23 30-13 16-49 21-51 8zM4688 703c7-3 16-2 19 1 4 3-2 6-13 5-11 0-14-3-6-6z" transform="matrix(.10017 0 0 -.1 -96.553 717.9)"/>
    <path d="M4010 6703c-387-28-823-149-1164-325-136-71-327-189-411-255-6-4-28-21-50-38-22-16-49-37-60-46-11-10-40-34-65-54-107-88-287-272-384-395-37-47-75-94-84-105-42-52-192-291-239-381-46-88-143-299-143-311 0-2 5-1 10 2 6 3 10 1 10-4 0-6-6-11-14-11-32 0-173-473-146-490 9-6 9-10-3-16-11-6-20-43-32-124-9-63-19-126-22-140-13-63-11-539 2-655 26-213 68-402 136-611 24-73 35-93 52-98 12-3 26 0 32 6 7 8 5 9-7 5-22-8-33 9-12 17 24 9 34 7 34-7 0-9 10-12 30-9 23 3 30 0 30-12 0-9-8-16-17-17-15 0-15-2 2-9 19-9 19-9-3-16-28-8-28-18 0-36 20-13 21-17 9-32-16-19-57-21-65-3-3 6-3 1 1-13 8-35 87-197 150-312 49-87 56-96 78-92 15 3 25 0 25-7 0-6-9-9-20-6s-20 3-20 1c0-4 111-174 127-194 6-8 49-62 95-120 105-134 334-362 469-466 269-210 547-366 846-474 67-25 104-34 106-26 3 7 10 5 18-6 22-25 331-104 479-121 25-3 68-9 96-12 47-7 53-5 59 14 9 29 29 27 21-3l-6-24 221-1c211-2 459 14 459 29 0 11 49 30 78 30 21 0 24-2 12-10-28-18 19-11 170 24 319 75 600 189 885 359 89 53 251 164 281 192 6 5 29 24 50 40 101 78 215 185 209 196-3 4 2 6 9 5 22-2 166 162 160 182-4 12-3 14 3 4 7-9 25 6 70 60 104 126 165 217 159 234-4 11-2 15 7 11 21-8 176 262 260 453 80 183 149 398 141 440-5 22-3 30 6 28 15-3 30 55 59 222 27 153 32 202 20 195-5-4-9 3-9 14 0 29 3 36 16 35 19-2 26 290 11 506-18 281-115 682-222 925l-24 54-68-28c-151-63-309-134-317-142-6-5-4.0052-.974-26.1843-9.523-18.1063-6.9792-21.6775-7.477-42.6775-16.477-22-9-53.4608-23.2765-69.3985-31.076-32.3817-13.4164-22.5989-10.0041-46.6936-20.1544 0-7 13.9539-37.7696 32.9539-76.7696 19-38 44-108 56-155 28-113 38-138 62-146 25-8 36 3 40 41l3 29 31-39c52-66 288-674 269-693-7-7-40 87-80 229-38 136-191 315-290 340-43 11-46 15-80 86-30 60-56 93-142 178-58 58-114 107-125 111-27 8-78-15-78-35 0-9 16-27 35-39 63-44 192-177 223-232 41-72 49-127 26-171-26-53-110-174-195-284-102-134-139-193-139-227 0-23 4-28 23-28 24 0 50 24 82 75 10 17 69 95 130 175 130 169 164 220 180 274 7 22 16 41 22 43 33 11 142-119 143-172 1-11 11-63 23-115 20-85 25-95 46-98l24-4-5 99c-5 90-5 95 8 65 8-17 25-75 39-128s47-146 74-207c85-193 87-217 37-469-57-284-98-378-186-428-44-24-51-25-320-31-179-4-310-12-376-23l-101-16-109 36c-103 34-115 36-209 32-124-6-194-28-375-121-315-162-300-157-470-157-174 1-219 20-347 148-78 78-86 102-47 144 50 52 99 70 202 76l92 5v28c0 42-28 52-129 47-71-4-97-10-146-35-69-35-115-77-115-104 0-24-4-24-86 7-79 29-211 46-296 37-51-5-58-9-58-27 0-20 8-23 93-33 126-15 329-87 352-124 13-20-138-143-338-273-79-52-152-105-161-117-9-13-16-42-16-66 0-36 5-46 33-66 42-32 93-48 124-41 19 5 23 12 21 33-2 20-14 31-53 50l-49 23 34 30c19 16 85 61 145 100 61 39 161 109 222 155l113 85 60-53 60-52-47-32c-78-52-171-150-265-275-80-107-185-205-253-236-49-23-67-26-125-22-85 6-165 42-224 101-52 52-71 87-90 159-11 46-17 53-40 56-26 3-26 3-26-65-1-128-24-180-101-222-65-37-118-33-214 14-58 29-99 59-155 115-119 118-160 218-160 390v65l35-37c44-49 85-53 85-9 0 15-8 39-19 52-10 13-30 41-44 62l-25 38 18 64c68 236 119 310 375 533 61 53 113 101 117 107 4 5 8-16 8-48v-58l33 3c30 3 32 6 40 53 14 88 28 118 103 230 81 123 177 228 202 223 12-2 19-18 23-54 8-65 25-116 61-183 16-30 26-62 23-70-4-9-10-54-15-100-13-119-32-137-180-161-36-5-79-13-97-15-27-5-35-14-61-68-39-84-83-132-149-163-67-32-201-163-232-227-31-65-44-171-38-312 7-146 12-165 43-165 22 0 30 13 25 42-2 13 0 272 2 298 6 71 97 189 211 272 77 56 106 32 180-146 25-59 55-123 66-141 15-24 20-50 20-103v-70l28 7c28 7 50 50 51 98 1 25 28 43 65 43 21 0 26 5 26 24 0 20-7 26-49 36-27 6-58 21-69 33s-42 69-68 127-58 122-72 142c-28 44-25 62 25 131 43 58 68 72 169 93 131 26 174 67 174 162 0 26 6 57 14 67 13 18 18 19 102 6 186-28 204-26 204 25 0 29-32 44-94 44-94 0-246 125-281 231-20 61-16 99 20 170 42 85 81 126 148 158 66 31 285 101 318 101 10 0 19 7 19 15s5 15 10 15c6 0 10-5 10-11 0-23 22-2 41 40l19 43-32-4c-18-3-105-24-193-47-165-44-273-86-314-124l-23-22 7 70c4 38 9 74 12 78 3 5-1 13-8 18-8 5-9 9-3 9 7 0 15 12 18 26 5 20 1 33-16 51-19 20-20 25-8 33 23 15 29 12 23-12-5-20-4-21 9-8 27 28 107 383 118 525 16 210 17 395 3 395-7 0-13 5-13 10 0 6 6 10 14 10 15 0 32 72 22 89-3 5-2 11 2 13 4 1 54 136 110 298 57 162 105 301 107 308 7 19 101 15 190-8 43-11 139-49 214-85 81-38 150-65 169-65 29 0 32 3 32 28 0 34-20 53-80 75-106 40-93 56 21 27 112-29 178-50 185-61 3-5-12-37-33-70s-42-69-47-79c-20-37-62-52-144-50-121 3-122 3-122-24 0-31 69-67 134-69l45-1-24-32c-13-17-21-35-17-39 4-5 2-5-5-2-6 4-24-4-40-17-15-13-41-30-58-39-41-21-98-74-128-120-14-21-28-33-32-27-3 5-15 10-26 10s-17 5-14 10c3 6-1 10-11 10-12 0-15-7-12-30 3-20 0-30-9-30-7 0-13 5-13 10 0 6-5 10-12 10-6 0 1-13 17-30 19-20 28-39 27-61-1-40-80-208-91-191-4 6-21 15-38 18-45 9-83-30-83-86 0-38 2-40 29-40 16 0 31 6 34 13 2 6 7 10 9 7 3-3-13-39-36-80-85-153-103-237-67-308 18-37 44-113 55-164 5-22 12-28 33-28h26l-6 66c-4 36-16 101-28 145l-21 80 34 67c286 550 318 606 368 642 39 28 76 21 154-31 32-22 62-39 67-39 10 0 45 68 38 73-27 23-129 86-143 88-34 7-31 29 3 24 30-3 35 2 139 157 117 177 154 218 223 253 35 18 50 33 64 67 28 65 78 172 149 320 139 290 177 371 174 373-9 7-219 89-304 119-128 45-332 99-349 92-8-3-15-1-17 4-4 12-217 47-358 59-86 7-117 7-122-2-6-9-10-9-16 1-7 10-42 13-153 10-79-2-160-4-179-5zm88-40c-2-12-11-17-23-15-25 5-29 8-20 21 11 19 47 13 43-6zm102 4c0-8-3-17-7-20-9-9-34 13-27 24 8 14 34 11 34-4zm51-18c-1-8-6-34-10-59-6-35-9-41-15-25-4 11-11 27-14 35-4 8-6 27-4 41 2 20 8 25 25 24 13-2 21-8 18-16zm-136-37c-6-5-21-6-35-2l-25 7 25 11c27 11 52-1 35-16zm255-27c0-19-2-35-4-35s-6 16-8 35 0 35 4 35 8-16 8-35zm-20-1c0-8-4-14-10-14-5 0-10 2-10 4s-3 12-6 20c-5 12-2 15 10 10 9-3 16-12 16-20zm86-31c-11-11-19 6-11 24 8 17 8 17 12 0 3-10 2-21-1-24zm194-28c-.6166-21.7904-8.1941-11.5526-14 0-3 8-1 15 4 15 6 0 10-7 10-15zm30 5c0-5-4-10-10-10-5 0-10 5-10 10 0 6 5 10 10 10 6 0 10-4 10-10zm-1180-96c0-8-4-12-10-9-5 3-10 10-10 16 0 5 5 9 10 9 6 0 10-7 10-16zm-390-94c0-5-4-10-10-10-5 0-10 5-10 10 0 6 5 10 10 10 6 0 10-4 10-10zm1372-390c6 0 9-3 6-6-57.5062 26.0119-36.2048 33.8814-6 6zm288-10c0-5-4-10-10-10-5 0-10 5-10 10 0 6 5 10 10 10 6 0 10-4 10-10zm-698-32c47-14 88-59 88-96 0-36-15-84-93-292-80-217-114-333-98-338 8-3 7-8-4-16-10-7-17-32-20-74-2-35-6-66-9-70-3-3-6-73-6-156 0-208-13-300-71-526-27-107-48-204-45-216 4-13 1-24-6-26-15-5-36-159-37-265-1-89-12-133-35-133-20 0-34 21-45 70-5 25-24 106-42 180s-32 154-31 178c0 51 27 100 70 127 22 14 31 28 32 48 0 25-3 27-41 27-56 0-99-47-129-141-30-92-24-152 29-291 48-124 50-156 16-224-48-96-308-394-343-394-31 0-64 48-82 120-33 129-63 392-57 510 2 58 2 111 0 118-5 14-59 17-67 3-3-5-15-7-26-4-17 4-20 0-20-23 0-16 4-45 10-64 5-19 16-97 25-173s25-186 36-245c24-134 24-134-7-171l-26-31-25 20c-42 32-120 51-239 57-141 7-166 2-162-35l3-27 115-8c183-14 269-59 319-166l24-50-56-68c-30-37-66-78-80-91l-24-23-447-6-446-6-35 39c-19 21-42 58-52 82-12 28-23 40-32 37-11-4-12-3-1 10 10 12 10 15-3 15-15 0-31 51-18 60 5 3 8 23 9 44 2 46 10 58 23 33 6-9 21-17 34-17 22 0 25 4 25 40 0 23-9 58-19 79-11 21-26 68-32 105-16 84-1 204 37 304 30 78 38 122 23 122-13 0-1 42 15 52 6 4 19 8 29 8 14 0 17-5 12-20-8-24 21-28 50-7 11 9 30 12 47 8 27-6 32-14 53-76 35-106 72-200 122-308 43-90 49-98 72-95s26 7 23 38c-2 19-32 107-67 195-66 170-95 268-95 328 0 26-4 37-15 37-8 0-15-6-15-14 0-14-28-22-123-34-32-5-61-12-65-18-4-5-19-15-34-21-62-27-116-139-144-295-20-113-32-133-80-142-47-9-84-46-84-86 0-28 3-30 36-30 27 0 37 5 41 20 7 25 36 34 63 20 24-13 26-67 9-201-12-92-33-135-81-162-28-16-29-16-48 16-11 18-35 69-52 115-28 72-34 82-56 82h-25l6 128c4 70 15 170 26 222 31 150 134 432 232 637 27 56 56 127 64 158 37 143 108 243 279 394 149 131 215 198 266 264 23 31 60 71 83 90 64 52 317 222 383 256 33 17 66 35 74 40s76 37 150 72c158 74 341 171 389 207 45 33 138 71 176 72 17 0 44-9 61-19 33-20 78-87 65-96-5-2-11-17-14-32-7-37-71-119-106-137-32-17-130-31-331-46-208-16-304-35-379-73-70-34-112-80-226-238-65-90-164-195-290-304-272-238-384-351-430-436-15-29-39-95-52-148-14-60-34-111-52-137-21-30-27-49-24-75 3-32 3-32-7-9-11 24-12 23-95-65-121-130-158-216-94-223 22-3 31 6 63 57 20 34 56 75 79 93 124 98 168 166 193 297 23 122 63 191 178 306 56 56 137 133 181 171 187 162 356 324 349 336-3 4 1 8 9 8 14 0 80 88 111 147 27 54 97 127 140 146 61 27 136 44 276 62 69 9 136 18 150 21 14 2 66 7 115 10 123 9 121 12 107-164-17-200-60-331-162-497-52-86-370-515-381-515-16 0-33 99-64 365-3 22-8 58-11 80-11 77-13 340-2 353 8 9 6 12-7 12-10 0-15 3-11 8 4 4 13 7 19 7s18 26 26 58c13 48 13 60 2 66-9 6-10 11-2 15 16 10 14 61-3 75-8 7-27 11-43 9-24-3-28-8-31-40-2-24 1-38 9-38 7 0 9-8 5-22-34-122-38-177-32-373 5-180 13-306 32-506l6-67-52-7c-43-6-55-12-70-38-19-30-48-145-70-272-19-111-126-291-160-270-6 4-32 35-56 68l-45 61 36 22c73 43 141 127 129 157-3 9 2 20 14 26 24 13 141 201 144 233 2 17-3 24-19 26-30 4-83-55-154-171-57-93-63-119-28-112 11 2 19-2 19-9 0-10-9-12-32-7-27 6-37 2-56-18-28-30-72-61-88-61-12 0-30 38-65 133-19 53-23 58-47 55-26-3-27-6-27-59 0-47 8-73 47-151 26-51 73-128 106-169l59-75-55-29c-96-51-162-175-162-307 0-57-1-59-22-53-48 15-119 60-182 115-46 41-71 57-85 53-88-23 62-187 223-243 139-49 299-71 401-56 47 7 47 8 24 21-36 21-38 22-115 33-113 18-147 32-167 72-47 93 50 247 212 335 89 48 152 115 182 193 12 31 34 122 50 202 34 168 44 196 75 217 22 14 28 13 88-15 35-17 72-41 81-55s36-74 59-134c58-148 95-207 129-211 38-5 36 23-12 133-21 50-46 115-55 146-9 32-32 80-51 108l-34 52 107 140c59 78 129 169 155 203 116 149 201 295 243 420 18 52 21 72 13 83-9 10-8 13 4 13 11 0 17 23 26 103 23 203 33 264 46 288 8 13 38 71 66 128 68 132 68 154 6 247l-47 69 27 12c36 16 184 16 235 1zm218 2c0-5-4-10-10-10-5 0-10 5-10 10 0 6 5 10 10 10 6 0 10-4 10-10zm170 0c0-5-5-10-11-10-5 0-7 5-4 10 3 6 8 10 11 10 2 0 4-4 4-10zm55 0c-3-5-13-10-21-10s-14 5-14 10c0 6 9 10 21 10 11 0 17-4 14-10zm285-13c-19-6-41-17-48-24-14-13-32-9-32 7 0 12 49 28 85 28h30zm-495-27c-3-5-17-10-31-10-13 0-24 5-24 10 0 6 14 10 31 10s28-4 24-10zm-950-30c-2223.3333-3893.3333-1111.6667-1946.6667 0 0zm50-10c-2256.6667-3886.6667-1128.3333-1943.3333 0 0zm86 0c-13-11-28-20-35-20-6 0 0 9 14 20 33 26 52 25 21 0zm39-25c0-8-4-15-10-15-5 0-7 7-4 15 4 8 8 15 10 15s4-7 4-15zm-90-3c0-5-12-14-27-21l-28-13 20 21c21 21 35 26 35 13zm-1269-155c-1-12-15-9-19 4-3 6 1 10 8 8 6-3 11-8 11-12zm867-27c-1-16-5-30-10-30-9 0-11 22-2 44 9 24 13 19 12-14zm-118-20c0-5-4-10-10-10-5 0-10 5-10 10 0 6 5 10 10 10 6 0 10-4 10-10zm-33-26c-3-3-12-4-19-1-8 3-5 6 6 6 11 1 17-2 13-5zm-117-84c0-5-2-10-4-10-3 0-8 5-11 10-3 6-1 10 4 10 6 0 11-4 11-10zm-75-50c3-5-1-10-10-10s-13 5-10 10c3 6 8 10 10 10s7-4 10-10zm305-80c0-5-4-10-10-10-5 0-10 5-10 10 0 6 5 10 10 10 6 0 10-4 10-10zm1730-115c0-16-27-32-37-22-3 4-3 13 0 22 8 20 37 20 37 0zm-2746-29c-5-13-9-14-20-5-16 13-9 29 12 29 19.4614.097 12.6929-11.37 8-24zm2796-6c0-5-5-10-11-10-5 0-7 5-4 10 3 6 8 10 11 10 2 0 4-4 4-10zm-60-10c0-5-7-10-16-10-8 0-12 5-9 10 3 6 10 10 16 10 5 0 9-4 9-10zm-1683-52c-3-8-6-5-6 6-1 11 2 17 5 13 3-3 4-12 1-19zm-1425-10c-7-7-12-8-12-2 0 14 12 26 19 19 2-3-1-11-7-17zm48 12c0-5-4-10-10-10-5 0-10 5-10 10 0 6 5 10 10 10 6 0 10-4 10-10zm35 0c3-5 1-10-4-10-6 0-11 5-11 10 0 6 2 10 4 10 3 0 8-4 11-10zm2296-15c-1-15-24-12-29 3-3 9 2 13 12 10 10-1 17-7 17-13zm-2323-38c4-18-13-23-22-8-3 5-15 7-26 4-15-4-18-11-13-34 3-16 1-29-4-29-17 0-23 13-12 26 7 8 7 14-1 19-5 3-10 13-10 21 0 11 6 13 20 9 11-3 20-2 20 3 0 16 45 6 48-11zm2332-17c0-5-7-10-15-10s-15 5-15 10c0 6 7 10 15 10s15-4 15-10zm470 6c0-3-4-8-10-11-5-3-10-1-10 4 0 6 5 11 10 11 6 0 10-2 10-4zm-2798-31c0-5-5-11-11-13s-11 4-11 13 5 15 11 13 11-8 11-13zm61-41c-17-5-17-5 0 6 66.753 55.6105 26.7556 1.7328 0-6zm1297 20c0-8-6-14-14-14s-14 8-13 19c1 21 27 17 27-5zm-1390 6c0-5-2-10-4-10-3 0-8 5-11 10-3 6-1 10 4 10 6 0 11-4 11-10zm2832-12c-7-7-12-8-12-2s3 14 7 17c3 4 9 5 12 2 2-3-1-11-7-17zm-1742 2c0-5-5-10-11-10-5 0-7 5-4 10 3 6 8 10 11 10 2 0 4-4 4-10zm-1097-22c12 3 19 1 14-3-16-17-47-15-46 3 0 9 3 12 5 6 3-7 15-9 27-6zm39-10c-7-7-12-8-12-2 0 14 12 26 19 19 2-3-1-11-7-17zm1353-8c-3-5-11-10-16-10-6 0-7 5-4 10 3 6 11 10 16 10 6 0 7-4 4-10zm-1342-20c-5-19-23-29-23-12 0 7 20 32 26 32 1 0 0-9-3-20zm-67-17c-10-10-19 5-10 18 6 11 8 11 12 0 2-7 1-15-2-18zm34 7c0-5-4-10-10-10-5 0-10 5-10 10 0 6 5 10 10 10 6 0 10-4 10-10zm80-46c0-8-9-14-19-14-11 0-21-8-23-17-2-12-14-18-41-19-20-1-37 2-37 7s4 9 8 9c5 0 14 12 21 26 10 22 16 25 42 20 22-4 34-1 47 14 45.0987 37.6976 2.0949-21.9429 2-26zm404-8c-26-23-30-24-41-9-31.6822 63.9546 16.131.9714 34 17 15 14 29 23 31 21s-9-15-24-29zm-580-18c-1-13-3-25-4-28s-1-15-1-27c1-11-3-24-8-28-6-3-11 1-11 9s-8 17-17 19c-13 3-11 5 6 6 18 1 21 4 13 14-14 16-4 57 12 57 7 0 12-10 10-22zm162-21c-14 14-4 23 18 17 104.1462 44.3046-3.2264-28.1965-18-17zm384-1c0-2-7-6-15-10-8-3-15-1-15 4 0 6 7 10 15 10s15-2 15-4zm-533-48c5 21 59 27 81 9 10-8 16-7 24 6 42.1861-29.4157-116.4723-57.2092-105-15zm5387-65c-9-37-24-53-24-26 0 28 10 53 21 53 5 0 6-12 3-27zm-5367-10c-1044.66667-3162-522.3333-1581 0 0zm5393-27c0-27-15-42-25-26-8 13 3 50 16 50 5 0 9-11 9-24zm10-78c0-18 2-20 10-8 7 12 12 12 22 2s9-19-7-47c-19-36-35-41-43-14-3 11-2 11 7-1s11-9 11 15v29l-16-22c-30-43-47-1-18 43 20 31 34 32 34 3zm-5220-278c-1166.66667-2906.6667-583.3333-1453.3333 0 0zm-425 20c3-5-1-10-10-10s-13 5-10 10c3 6 8 10 10 10s7-4 10-10zm615-296c0-8-4-12-10-9-5 3-10 10-10 16 0 5 5 9 10 9 6 0 10-7 10-16zm205-124c3-5 2-10-4-10-5 0-13 5-16 10-3 6-2 10 4 10 5 0 13-4 16-10zm525-50c0-5-5-10-11-10-5 0-7 5-4 10 3 6 8 10 11 10 2 0 4-4 4-10zm-730-30c0-5-4-10-10-10-5 0-10 5-10 10 0 6 5 10 10 10 6 0 10-4 10-10zm0-30c0-5-4-10-10-10-5 0-10 5-10 10 0 6 5 10 10 10 6 0 10-4 10-10zm-455-9c3-5 1-12-5-16-5-3-10 1-10 9 0 18 6 21 15 7zm-35-12c0-5-11-9-25-9-33 0-33 15 0 16 14 1 25-2 25-7zm-60-33c0-8-7-16-15-20-17-6-18-4-9 18 8 20 24 21 24 2zm106 1c10-10-62-41-80-34-9 4-16 16-16 27 0 19 5 21 45 18 24-3 47-7 51-11zm44 3c0-5-4-10-10-10-5 0-10 5-10 10 0 6 5 10 10 10 6 0 10-4 10-10zm2290-52c0-5-4-8-10-8-5 0-10 10-10 23 0 18 2 19 10 7 5-8 10-18 10-22zm-36-48c-9-23-26 28-18 54 7 19 8 18 16-9 4-16 5-37 2-45zm-2364 35c0-8-4-15-10-15-5 0-10 7-10 15s5 15 10 15c6 0 10-7 10-15zm30 5c0-5-4-10-10-10-5 0-10 5-10 10 0 6 5 10 10 10 6 0 10-4 10-10zm57-36c-3-3-12-4-19-1-8 3-5 6 6 6 11 1 17-2 13-5zm5603-4c0-5-4-10-10-10-5 0-10 5-10 10 0 6 5 10 10 10 6 0 10-4 10-10zm-1010-90c0-5-4-10-10-10-5 0-10 5-10 10 0 6 5 10 10 10 6 0 10-4 10-10zm929-17c0-25-1-26-9-8-12 27-12 35 0 35 6 0 10-12 9-27zm-3438-6c-10-9-11-8-5 6 3 10 9 15 12 12s0-11-7-18zm3391-29c-9-9-12-7-12 12s3 21 12 12 9-15 0-24zm98 23c0-6-4-13-10-16-5-3-10 1-10 9 0 9 5 16 10 16 6 0 10-4 10-9zm-990-11c0-5-5-10-11-10-5 0-7 5-4 10 3 6 8 10 11 10 2 0 4-4 4-10zm998-137c-2-20 2-28 12-28 15 0 28-19 29-42 1-7-4-13-10-13s-9 7-5 15c3 8 0 15-7 15-8 0-13-12-13-32 1-18-5-33-13-36-11-4-13 2-8 26 4 20 2 32-7 35-15 6-10 53 7 75 14 18 18 15 15-15zm82 8c0-6-4-13-10-16-5-3-10 1-10 9 0 9 5 16 10 16 6 0 10-4 10-9zm40-1c0-5-2-10-4-10-3 0-8 5-11 10-3 6-1 10 4 10 6 0 11-4 11-10zm-213-52c-3-8-6-5-6 6-1 11 2 17 5 13 3-3 4-12 1-19zm173-10c0-36-12-31-16 7-1 14 2 25 7 25s9-14 9-32zm-135 13c3-5 1-12-5-16-5-3-10 1-10 9 0 18 6 21 15 7zm-25-61c-5-18-5-32 1-36 11-6 2-24-12-24-6 0-9 6-6 13 2 6 1 24-4 39-8 28-3 38 17 38 9 0 10-8 4-30zm30 5c0-14-4-25-10-25-11 0-14 33-3 43 11 11 13 8 13-18zm110 5c0-5-7-10-16-10-8 0-12 5-9 10 3 6 10 10 16 10 5 0 9-4 9-10zm-40-51c0-5-10-9-21-9-18 0-19 2-9 15 12 15 30 12 30-6zm-60-5c0-8-5-12-10-9-6 4-8 11-5 16 9 14 15 11 15-7zm-3911-45l34-31-29-23-29-23-21 41c-36 69-13 88 45 36zm888 17c0-8-6-12-14-9-7 3-13 9-13 14s6 9 13 9c8 0 14-6 14-14zm-2677-66c0-5-4-10-10-10-5 0-10 5-10 10 0 6 5 10 10 10 6 0 10-4 10-10zm314-305c7-36 22-75 32-87 29-32 89-55 194-74 136-24 159-40 184-121 7-21 4-23-29-23-103 0-249 60-315 128-75 79-136 207-164 344-9 42-16 85-16 95 0 34 100-195 114-262zm-209 215c-3-5-10-10-16-10-5 0-9 5-9 10 0 6 7 10 16 10 8 0 12-4 9-10zm384-131c28-60 84-101 164-120 75-17 435-19 607-2 194 19 257 5 174-37-24-12-96-16-413-18-488-5-562 4-606 71-31 48-30 81 5 121 18 20 35 36 39 36s18-23 30-51zm5256-59c-3-5-10-10-16-10-5 0-9 5-9 10 0 6 7 10 16 10 8 0 12-4 9-10zm0-55c-14-39-14-39-15-9 0 16 5 35 12 42 18 18 18 10 3-33zm-4825-162c14-9 49-38 77-64 52-47 139-88 231-108 36-8 42-7 43 8 1 14 2 14 6-1 3-12 14-18 33-18 33 0 43-11 34-34-12-31-56-46-105-35-24 6-52 8-61 6-10-3-18-1-18 3 0 5-62 29-137 54-76 25-153 55-171 66-35 22-78 100-68 126 8 21 105 19 136-3zm476 5c10-11-26-87-48-103-37-26-221 28-285 84-13 11-23 22-23 26 0 9 346 2 356-7zm-1051-66c7-19 5-21-25-24-18-2-25 3-30 24-5 15-6 29-3 32 8 8 51-16 58-32zm5190-21c3-5 1-12-4-15s-11 1-15 9c-6 16 9 21 19 6zm-5165-45c0-3-4-8-10-11-5-3-10-1-10 4 0 6 5 11 10 11 6 0 10-2 10-4zm5268-54c2-8-8-12-27-12-21 0-31 5-31 15 0 19 52 15 58-3zm-5278-31c0 17 4 28 10 24 27.2962-31.7388-9.3049-87.5689-10-24zm373 22c-7-2-21-2-30 0-10 3-4 5 12 5 17 0 24-2 18-5zm3907-53c0-11-4-20-10-20-5 0-10 9-10 20s5 20 10 20c6 0 10-9 10-20zm-3690-14c30-8 80-21 110-30 78-23 190-46 222-46 15 0 29-4 32-9 14-22-233-54-424-55-104-1-133 2-172 19-27 11-48 24-48 29 0 6-10 20-22 33s-18 26-14 30c8 9 187 41 231 42 17 0 55-6 85-13zm-658-38c-9-9-12-7-12 12s3 21 12 12 9-15 0-24zm3528-17c0-6-4-13-10-16-5-3-10 1-10 9 0 9 5 16 10 16 6 0 10-4 10-9zm-36-27c7-17 0-34-14-34-11 0-21 30-14 41 8 14 21 11 28-7zm-3124-23c0-11-4-23-10-26-6-4-10 5-10 19s5 26 10 26c6 0 10-9 10-19zm-360-11c-5 0-10 5-10 10 0 6 5 10 10 10 15.485-5.3439 8.6532-15.2972 0-20zm320 10c0-5-4-10-10-10-5 0-10 5-10 10 0 6 5 10 10 10 6 0 10-4 10-10zm4480-21c0-5-9-9-20-9-22 0-23 1-14 24 5 13 9 14 20 5 8-6 14-15 14-20zm-1278-24c-6.7369-44.9094-34.6229 7.041-24 28 6 12 20-4 24-28zm-3345.839-146.4237c-1145.99998-1492.6667-573-746.3334 0 0zM6540 2250c0-5-2-10-4-10-3 0-8 5-11 10-3 6-1 10 4 10 6 0 11-4 11-10zm-3933-6c-3-3-12-4-19-1-8 3-5 6 6 6 11 1 17-2 13-5zm-557-14c0-5-2-10-4-10-3 0-8 5-11 10-3 6-1 10 4 10 6 0 11-4 11-10zm-261-15c1-2 0-9-4-15s-21-9-42-5c-42 6-55 13-48 25 5 8 84 3 94-5zm-79-35c0-5-4-10-10-10-5 0-10 5-10 10 0 6 5 10 10 10 6 0 10-4 10-10zm70-10c0-5-4-10-10-10-5 0-10 5-10 10 0 6 5 10 10 10 6 0 10-4 10-10zm669-16c1.4726-36.8651-46.5848 31.3691-16 24 6-3 14-13 16-24zm-674-13c3-5 1-12-5-16-5-3-10 1-10 9 0 18 6 21 15 7zm2515-22c0-5-4-9-10-9-5 0-10 7-10 16 0 8 5 12 10 9 6-3 10-10 10-16zm-2524-29c0-11-6-20-12-20-7 0-10 8-7 20 3 11 8 20 12 20s7-9 7-20zm-46-46c0-8-4-12-10-9-5 3-10 10-10 16 0 5 5 9 10 9 6 0 10-7 10-16zm425 6c3-5 1-10-4-10-6 0-11 5-11 10 0 6 2 10 4 10 3 0 8-4 11-10zm566-43c-13-13-26-3-16 12 3 6 11 8 17 5 6-4 6-10-1-17zm1524-27c3-5 1-10-4-10-6 0-11 5-11 10 0 6 2 10 4 10 3 0 8-4 11-10zm-35-39c0-5-7-14-15-21-11-9-12-16-5-25 8-9 8-15 0-20-19-12-30 4-20 31 6 14 8 30 4 35-3 5 4 9 15 9 12 0 21-4 21-9zm47-46c6 11 15 16 20 11 4-5 2-11-5-13-9-4-10-9-3-17 12-14 3-56-11-56-5 0-8 10-6 22 2 15-2 23-12 23-16 0-22 38-11 65 3 9 8 2 11-20 5-32 6-33 17-15zm83 33c0-17-18-44-24-37-8 7 5 49 15 49 5 0 9-6 9-12zm32-3c0-5-5-11-11-13s-11 4-11 13 5 15 11 13 11-8 11-13zm37-9c-5 3-7 10-3 15 21.1602 12.6511 26.1707-17.8963 3-15zm-3-51c-8 11-12 24-8 29 17.2116-4.8333 30.7684-57.187 8-29zm-86 5c0-5-5-10-11-10-5 0-7 5-4 10 3 6 8 10 11 10 2 0 4-4 4-10zm2097-44c-3-22-10-42-16-44-7-2-8-9-1-22s7-21 0-25c-21-13-24 35-5 78-13.1884 73.143 28.7453 88.1265 22 13zm93 28c0-8-4-12-10-9-5 3-10 10-10 16 0 5 5 9 10 9 6 0 10-7 10-16zm65-4c0-7-5-15-10-17-6-2-11 6-11 17s5 19 11 17c5-2 10-10 10-17zm-2401 4c9-3 13-10 10-15-8-14-21-11-28 6-6 17-4 18 18 9zm-642-59c78-59 139-85 200-85 21 0 38-4 38-8 0-17-109-72-173-87-62-14-74-14-130 0-67 17-130 53-146 84-9 17-5 23 34 46 25 14 57 44 72 66 14 21 27 39 30 39 2 0 36-25 75-55zm698 39c0-8-5-12-10-9-6 4-8 11-5 16 9 14 15 11 15-7zm-1370-14c0-5-5-10-11-10-5 0-7 5-4 10 3 6 8 10 11 10 2 0 4-4 4-10zm3510-10c0-5-2-10-4-10s-12-3-20-6c-12-5-15-2-10 10 7 17 34 22 34 6zm-38-32c21 5 38-12 38-40 0-19-34-25-45-8-77.1266 87.7327-.2969 46.1305 7 48zm125 10c-3-8-6-5-6 6-1 11 2 17 5 13 3-3 4-12 1-19zm-2452-58c3-6-1-7-9-4-18 7-21 14-7 14 6 0 13-4 16-10zm2355-29c-1-28-15-51-32-51s-19 5-14 28c3 15 3 21 0 15-3-7-10-13-15-13-13 0-11 28 3 32 16 6 58-2 58-11zm43-14c-3-5-9-3-14 4-4 7-5 17-2 22s9 3 14-4c4-7 5-17 2-22zm37-7c0-5-4-10-10-10-5 0-10 5-10 10 0 6 5 10 10 10 6 0 10-4 10-10zm-155-8c15-10 18-72 5-72-6 0-8-5-5-11 4-5 9-23 12-40 3-21 0-29-10-29-15 0-40 23-33 31 10 12 15 59 6 59-6 0-8-4-5-10 3-5 1-10-4-10-6 0-11 12-11 26 0 20 4 24 19 19 12-3 21 0 25 10s-1 15-14 15c-11 0-20 5-20 10 0 12 20 13 35 2zm110-54c-7-19-35-19-35-1 0 8 5 11 10 8 6-3 10 2 10 11 0 13 3 15 10 8 6-6 8-17 5-26zm-48-27c2-42 1-43-15-27-15 14-15 18-2 26 12 7 11 12-5 31-20 21-20 21 0 18 16-3 20-13 22-48zm-155-73c-9-9-12-7-12 12s3 21 12 12 9-15 0-24zm-52-12c0-15-27-29-40-21-5 3-7 12-3 20 7 19 43 20 43 1zm-2909-19c-13-13-26-3-16 12 3 6 11 8 17 5 6-4 6-10-1-17zm2839-27c0-5-2-10-4-10-3 0-8 5-11 10-3 6-1 10 4 10 6 0 11-4 11-10zm-322-65c0-25-23-35-30-13-4 12 11 37 23 38 4 0 7-11 7-25zm42-37c0-37-10-47-16-15-2 7-6 22-10 35-5 16-2 22 10 22s16-10 16-42zm103 1c-4-15-9-17-17-9s-7 13 4 20c8 5 16 10 17 10 0 0-1-9-4-21zm-43-5c0-8-4-12-10-9-5 3-10 10-10 16 0 5 5 9 10 9 6 0 10-7 10-16zm-110-53c0-6-4-13-10-16-5-3-10 1-10 9 0 9 5 16 10 16 6 0 10-4 10-9zm-2314-48c-10-10-19 5-10 18 6 11 8 11 12 0 2-7 1-15-2-18zm2534 4c0-8-7-14-15-14-11 0-12 4-4 14 6 7 13 13 15 13s4-6 4-13zm-113-29c-3-8-6-5-6 6-1 11 2 17 5 13 3-3 4-12 1-19zm-236-21c-1-12-15-9-19 4-3 6 1 10 8 8 6-3 11-8 11-12zm314 3c3-5-1-10-9-10-9 0-16 5-16 10 0 6 4 10 9 10 6 0 13-4 16-10zm-1255-19c0-9-24-21-42-21-6 0-6 6 2 15 14 16 40 20 40 6zm0-40c0-10-24-21-47-21-13 0-13 3-3 15 13 16 50 21 50 6zm-339-124c-10-9-11-8-5 6 3 10 9 15 12 12s0-11-7-18zm-371-33c0-8-5-12-10-9-6 4-8 11-5 16 9 14 15 11 15-7zm450-49c15-18 6-45-15-45-9 0-13-5-10-10 5-8 11-8 20 0 8 7 15 7 19 1 8-12-13-26-39-26-14 0-19-6-17-19 3-16 2-17-11-5-18 19-28 94-14 108 16 16 52 14 67-4zm390 5c0-5-7-13-16-18-11-6 1-8 36-4 40 4 51 2 45-7-4-7-17-16-29-21l-21-9h23c27-1 30-21 2-21-13 0-18-5-14-15 3-8 11-13 17-12 16 3 21-34 5-44-23-15-58-10-58 7 0 13-3 14-14 5-10-8-16-9-21-1-3 6-12 7-18 4-7-4-9-3-4 1 4 5 24 16 45 26s30 18 20 18c-19 1-26 21-8 21 6 0 10 4 10 10 0 5-6 7-14 4-17-7-29 35-14 53 12 15 28 17 28 3zm-30-80c0-5-7-10-15-10s-15 5-15 10c0 6 7 10 15 10s15-4 15-10zm-130-70c0-13-7-20-20-20s-20 7-20 20 7 20 20 20 20-7 20-20zm-235-11c-4-5-13-9-22-9-13 0-13 3-3 15 13 15 35 11 25-6zm35-54c0-8-7-15-15-15-16 0-20 12-8 23 11 12 23 8 23-8zm-220 1c0-3-4-8-10-11-5-3-10-1-10 4 0 6 5 11 10 11 6 0 10-2 10-4zm170-6c0-5-4-10-10-10-5 0-10 5-10 10 0 6 5 10 10 10 6 0 10-4 10-10zm-340-9c0-12-20-25-27-18s6 27 18 27c5 0 9-4 9-9zm180-30c0-5-11-8-25-8s-25 3-25 8 11 9 25 9 25-4 25-9z" transform="matrix(.10017 0 0 -.1 -96.553 717.9)"/>
  </g>
</svg>
