<?xml version="1.0" encoding="utf-8"?>
<!DOCTYPE svg PUBLIC "-//W3C//DTD SVG 1.1//EN" "http://www.w3.org/Graphics/SVG/1.1/DTD/svg11.dtd">
<svg version="1.1" xmlns="http://www.w3.org/2000/svg" x="0px" y="0px" viewBox="0 0 1000 1000" enable-background="new 0 0 1000 1000" xml:space="preserve">
  <g><path fill="#315879" d="M867.6,408.4h-34.3V114.5c0-57.7-54.5-104.5-122-104.5H288.5c-67.4,0-122,46.7-122,104.5v293.9h-34.3c-33.7,0-61,23.4-61,52.3v476.9c0,28.8,27.2,52.3,61,52.3h735.6c33.7,0,61-23.4,61-52.3V460.8C928.6,431.8,901.3,408.4,867.6,408.4L867.6,408.4z M558,865.1c0,9.4-9.1,17-20.2,17h-75.7c-11.1,0-20.2-7.6-20.2-17l19.3-226.1c-23.8-13.5-39.9-39-39.9-68.3c0-43.4,35.2-78.6,78.6-78.6c43.4,0,78.6,35.2,78.6,78.6c0,29.3-16.1,54.8-39.9,68.3L558,865.1L558,865.1z M726.7,408.4H273.2V147.2c0-28.8,27.3-52.2,61-52.2h331.5c33.7,0,61,23.4,61,52.2V408.4L726.7,408.4z"/></g>
</svg>