<?xml version="1.0" encoding="utf-8"?>
<svg version="1.1" xmlns="http://www.w3.org/2000/svg" xmlns:xlink="http://www.w3.org/1999/xlink" x="0px" y="0px" viewBox="0 0 30 30" style="enable-background:new 0 0 30 30;" xml:space="preserve">
<g>
  <path fill="#315879" class="st0" d="M0.2,10C0.1,7.1,0.8,4.7,2.6,2.7C3.3,2,4,1.3,4.8,0.7c0.9-0.7,1.9-0.7,2.8,0C7.9,1,8.2,1.3,8.5,1.6
		c1,1.3,2.1,2.5,2.7,4.1c0.6,1.3,0.4,2.5-0.7,3.6c-0.5,0.5-1,1-1.5,1.4c-1.3,1-1.4,2.1-0.8,3.4c0.5,1.2,1.3,2.3,2.2,3.2
		c1.2,1.3,2.4,2.6,3.9,3.6c0.8,0.6,1.6,1.1,2.6,1.2c0.9,0.1,1.6-0.1,2.1-0.8c0.6-0.6,1.2-1.2,1.8-1.8c1-1,2.2-1.1,3.5-0.5
		c0.6,0.3,1.2,0.6,1.8,1c0.9,0.7,1.8,1.4,2.6,2.1c0.3,0.2,0.5,0.6,0.7,0.9c0.6,0.8,0.5,1.7-0.1,2.5c-0.9,1-1.9,2-3,2.8
		c-1.5,0.9-3,1.5-4.8,1.6c-2.5,0.1-4.8-0.6-6.9-1.7c-2.3-1.2-4.3-2.8-6.2-4.6c-2.1-2-4-4.1-5.5-6.6c-1.1-1.7-1.9-3.5-2.4-5.5
		C0.3,11,0.3,10.4,0.2,10z"/>
</g>
</svg>
