<svg id="Layer_1" data-name="Layer 1" xmlns="http://www.w3.org/2000/svg" viewBox="0 0 1615.81 701">
  <defs>
    <style>
      .cls-1, .cls-2, .cls-3 {
        fill: none;
        stroke: rgba(83, 115, 144, 0.13);
        stroke-miterlimit: 10;
      }
      .cls-2 {
        stroke-width: 1px;
      }
      .cls-3 {
        stroke-width: 1px;
      }
      .dot {
      fill: rgba(152, 195, 234, 0.97);
      }
    </style>
  </defs>
  <title>Untitled-yyy</title>
  <polygon class="cls-1" points="48.92 281.42 8.89 212.08 48.92 142.74 128.99 142.74 169.02 212.08 128.99 281.42 48.92 281.42"/>
  <polygon class="cls-1" points="290.2 142.53 250.17 73.19 290.2 3.86 370.26 3.86 410.3 73.19 370.26 142.53 290.2 142.53"/>
  <polygon class="cls-1" points="410.3 350.75 370.26 281.42 410.3 212.08 490.36 212.08 530.39 281.42 490.36 350.75 410.3 350.75"/>
  <polygon class="cls-1" points="48.92 142.12 8.89 72.78 48.92 3.44 128.99 3.44 169.02 72.78 128.99 142.12 48.92 142.12"/>
  <polygon class="cls-1" points="169.74 211.87 129.71 142.53 169.74 73.19 249.81 73.19 289.84 142.53 249.81 211.87 169.74 211.87"/>
  <polygon class="cls-1" points="530.75 281.42 490.72 212.08 530.75 142.74 610.82 142.74 650.85 212.08 610.82 281.42 530.75 281.42"/>
  <polygon class="cls-1" points="771.31 142.78 731.28 73.44 771.31 4.1 851.37 4.1 891.4 73.44 851.37 142.78 771.31 142.78"/>
  <polygon class="cls-1" points="290.2 281.42 250.17 212.08 290.2 142.74 370.26 142.74 410.3 212.08 370.26 281.42 290.2 281.42"/>
  <polygon class="cls-1" points="531.47 142.53 491.44 73.19 531.47 3.86 611.54 3.86 651.57 73.19 611.54 142.53 531.47 142.53"/>
  <polygon class="cls-1" points="48.92 560.02 8.89 490.68 48.92 421.34 128.99 421.34 169.02 490.68 128.99 560.02 48.92 560.02"/>
  <polygon class="cls-1" points="48.92 420.72 8.89 351.38 48.92 282.04 128.99 282.04 169.02 351.38 128.99 420.72 48.92 420.72"/>
  <polygon class="cls-1" points="289.84 559.81 249.81 490.47 289.84 421.13 369.9 421.13 409.94 490.47 369.9 559.81 289.84 559.81"/>
  <polygon class="cls-1" points="650.85 351.62 610.82 282.28 650.85 212.94 730.92 212.94 770.95 282.28 730.92 351.62 650.85 351.62"/>
  <polygon class="cls-1" points="892.13 212.74 852.09 143.4 892.13 74.06 972.19 74.06 1012.22 143.4 972.19 212.74 892.13 212.74"/>
  <polyline class="cls-1" points="1012.22 420.96 972.19 351.62 1012.22 282.28 1092.29 282.28 1132.32 351.62 1092.29 420.96"/>
  <polygon class="cls-1" points="650.85 212.32 610.82 142.98 650.85 73.64 730.92 73.64 770.95 142.98 730.92 212.32 650.85 212.32"/>
  <polygon class="cls-1" points="892.13 351.62 852.09 282.28 892.13 212.94 972.19 212.94 1012.22 282.28 972.19 351.62 892.13 351.62"/>
  <polygon class="cls-1" points="1133.4 212.74 1093.37 143.4 1133.4 74.06 1213.47 74.06 1253.5 143.4 1213.47 212.74 1133.4 212.74"/>
  <polygon class="cls-1" points="771.67 699.98 731.64 630.64 771.67 561.3 851.73 561.3 891.77 630.64 851.73 699.98 771.67 699.98"/>
  <polygon class="cls-1" points="1012.22 699.56 972.19 630.22 1012.22 560.88 1092.29 560.88 1132.32 630.22 1092.29 699.56 1012.22 699.56"/>
  <polygon class="cls-1" points="650.85 490.92 610.82 421.58 650.85 352.25 730.92 352.25 770.95 421.58 730.92 490.92 650.85 490.92"/>
  <polyline class="cls-2" points="1093.1 560.67 1012.49 560.67 972.19 491.34 1012.49 422 1093.1 422 1133.4 491.34"/>
  <polyline class="cls-1" points="1213.47 212.06 1253.5 142.73 1333.56 142.73 1373.6 212.06 1333.56 281.4 1253.5 281.4"/>
  <polygon class="cls-1" points="1494.05 420.29 1454.02 350.95 1494.05 281.61 1574.12 281.61 1614.15 350.95 1574.12 420.29 1494.05 420.29"/>
  <polyline class="cls-1" points="1493.69 281.4 1453.66 350.74 1373.6 350.74 1333.56 281.4 1373.6 212.06 1453.66 212.06"/>
  <polygon class="cls-1" points="1494.77 281.4 1454.74 212.06 1494.77 142.73 1574.84 142.73 1614.87 212.06 1574.84 281.4 1494.77 281.4"/>
  <polyline class="cls-3" points="1213.47 490.67 1253.5 421.33 1333.56 421.33 1373.6 490.67 1333.56 560 1253.5 560"/>
  <polygon class="cls-1" points="1494.05 698.89 1454.02 629.55 1494.05 560.21 1574.12 560.21 1614.15 629.55 1574.12 698.89 1494.05 698.89"/>
  <polyline class="cls-1" points="1253.5 560.21 1333.56 560.21 1373.6 629.55 1333.56 698.89 1253.5 698.89 1213.47 629.55"/>
  <polygon class="cls-1" points="1494.05 559.73 1454.02 490.39 1494.05 421.06 1574.12 421.06 1614.15 490.39 1574.12 559.73 1494.05 559.73"/>
  <polygon class="cls-1" points="49.28 697.74 9.25 628.4 49.28 559.06 129.35 559.06 169.38 628.4 129.35 697.74 49.28 697.74"/>
  <polygon class="cls-1" points="289.5 697.9 249.47 628.56 289.5 559.22 369.57 559.22 409.6 628.56 369.57 697.9 289.5 697.9"/>
  <polygon class="cls-1" points="531.11 699.65 491.08 630.31 531.11 560.97 611.18 560.97 651.21 630.31 611.18 699.65 531.11 699.65"/>
  <polygon class="cls-1" points="1012.22 143.84 972.19 74.5 1012.22 5.16 1092.29 5.16 1132.32 74.5 1092.29 143.84 1012.22 143.84"/>
  <polygon class="cls-1" points="1495.13 143.22 1455.1 73.88 1495.13 4.54 1575.2 4.54 1615.23 73.88 1575.2 143.22 1495.13 143.22"/>
  <polygon class="cls-1" points="1253.66 142.84 1213.63 73.5 1253.66 4.16 1333.73 4.16 1373.76 73.5 1333.73 142.84 1253.66 142.84"/>
  <path class="dot" d="M334,156c7.72,0,7.73-12,0-12s-7.73,12,0,12h0Z" transform="translate(-164.31 -76.5)"/>
  <path class="dot" d="M415,295c7.72,0,7.73-12,0-12s-7.73,12,0,12h0Z" transform="translate(-164.31 -76.5)"/>
  <path class="dot" d="M335,574c7.72,0,7.73-12,0-12s-7.73,12,0,12h0Z" transform="translate(-164.31 -76.5)"/>
  <path class="dot" d="M656,295c7.72,0,7.73-12,0-12s-7.73,12,0,12h0Z" transform="translate(-164.31 -76.5)"/>
  <path class="dot" d="M655,711c7.72,0,7.73-12,0-12s-7.73,12,0,12h0Z" transform="translate(-164.31 -76.5)"/>
  <path class="dot" d="M776,505c7.72,0,7.73-12,0-12s-7.73,12,0,12h0Z" transform="translate(-164.31 -76.5)"/>
  <path class="dot" d="M1017,226c7.72,0,7.73-12,0-12s-7.73,12,0,12h0Z" transform="translate(-164.31 -76.5)"/>
  <path class="dot" d="M1138,435c7.72,0,7.73-12,0-12s-7.73,12,0,12h0Z" transform="translate(-164.31 -76.5)"/>
  <path class="dot" d="M1259,504c7.72,0,7.73-12,0-12s-7.73,12,0,12h0Z" transform="translate(-164.31 -76.5)"/>
  <path class="dot" d="M1501,226c7.72,0,7.73-12,0-12s-7.73,12,0,12h0Z" transform="translate(-164.31 -76.5)"/>
  <path class="dot" d="M1537,713c7.72,0,7.73-12,0-12s-7.73,12,0,12h0Z" transform="translate(-164.31 -76.5)"/>
  <path class="dot" d="M212,508c11.58,0,11.6-18,0-18s-11.6,18,0,18h0Z" transform="translate(-164.31 -76.5)"/>
  <path class="dot" d="M935,369c11.58,0,11.6-18,0-18s-11.6,18,0,18h0Z" transform="translate(-164.31 -76.5)"/>
  <path class="dot" d="M1136,716c11.58,0,11.6-18,0-18s-11.6,18,0,18h0Z" transform="translate(-164.31 -76.5)"/>
  <path class="dot" d="M1739,230c11.58,0,11.6-18,0-18s-11.6,18,0,18h0Z" transform="translate(-164.31 -76.5)"/>
  <path class="dot" d="M213,222c3.86,0,3.87-6,0-6s-3.87,6,0,6h0Z" transform="translate(-164.31 -76.5)"/>
  <path class="dot" d="M295,222c3.86,0,3.87-6,0-6s-3.87,6,0,6h0Z" transform="translate(-164.31 -76.5)"/>
  <path class="dot" d="M294,361c3.86,0,3.87-6,0-6s-3.87,6,0,6h0Z" transform="translate(-164.31 -76.5)"/>
  <path class="dot" d="M415,431c3.86,0,3.87-6,0-6s-3.87,6,0,6h0Z" transform="translate(-164.31 -76.5)"/>
  <path class="dot" d="M534,361c3.86,0,3.87-6,0-6s-3.87,6,0,6h0Z" transform="translate(-164.31 -76.5)"/>
  <path class="dot" d="M775,221c3.86,0,3.87-6,0-6s-3.87,6,0,6h0Z" transform="translate(-164.31 -76.5)"/>
  <path class="dot" d="M777,361c3.86,0,3.87-6,0-6s-3.87,6,0,6h0Z" transform="translate(-164.31 -76.5)"/>
  <path class="dot" d="M575,571c3.86,0,3.87-6,0-6s-3.87,6,0,6h0Z" transform="translate(-164.31 -76.5)"/>
  <path class="dot" d="M454,640c3.86,0,3.87-6,0-6s-3.87,6,0,6h0Z" transform="translate(-164.31 -76.5)"/>
  <path class="dot" d="M415,709c3.86,0,3.87-6,0-6s-3.87,6,0,6h0Z" transform="translate(-164.31 -76.5)"/>
  <path class="dot" d="M455,501c3.86,0,3.87-6,0-6s-3.87,6,0,6h0Z" transform="translate(-164.31 -76.5)"/>
  <path class="dot" d="M174,709c3.86,0,3.87-6,0-6s-3.87,6,0,6h0Z" transform="translate(-164.31 -76.5)"/>
  <path class="dot" d="M816,711c3.86,0,3.87-6,0-6s-3.87,6,0,6h0Z" transform="translate(-164.31 -76.5)"/>
  <path class="dot" d="M1017,362c3.86,0,3.87-6,0-6s-3.87,6,0,6h0Z" transform="translate(-164.31 -76.5)"/>
  <path class="dot" d="M1056,571c3.86,0,3.87-6,0-6s-3.87,6,0,6h0Z" transform="translate(-164.31 -76.5)"/>
  <path class="dot" d="M936,640c3.86,0,3.87-6,0-6s-3.87,6,0,6h0Z" transform="translate(-164.31 -76.5)"/>
  <path class="dot" d="M1056,710c3.86,0,3.87-6,0-6s-3.87,6,0,6h0Z" transform="translate(-164.31 -76.5)"/>
  <path class="dot" d="M1258,641c3.86,0,3.87-6,0-6s-3.87,6,0,6h0Z" transform="translate(-164.31 -76.5)"/>
  <path class="dot" d="M1298,292c3.86,0,3.87-6,0-6s-3.87,6,0,6h0Z" transform="translate(-164.31 -76.5)"/>
  <path class="dot" d="M1177,223c3.86,0,3.87-6,0-6s-3.87,6,0,6h0Z" transform="translate(-164.31 -76.5)"/>
  <path class="dot" d="M1659,223c3.86,0,3.87-6,0-6s-3.87,6,0,6h0Z" transform="translate(-164.31 -76.5)"/>
  <path class="dot" d="M1538,153c3.86,0,3.87-6,0-6s-3.87,6,0,6h0Z" transform="translate(-164.31 -76.5)"/>
  <path class="dot" d="M1418,361c3.86,0,3.87-6,0-6s-3.87,6,0,6h0Z" transform="translate(-164.31 -76.5)"/>
  <path class="dot" d="M1418,501c3.86,0,3.87-6,0-6s-3.87,6,0,6h0Z" transform="translate(-164.31 -76.5)"/>
  <path class="dot" d="M1378,709c3.86,0,3.87-6,0-6s-3.87,6,0,6h0Z" transform="translate(-164.31 -76.5)"/>
  <path class="dot" d="M1658,640c3.86,0,3.87-6,0-6s-3.87,6,0,6h0Z" transform="translate(-164.31 -76.5)"/>
  <path class="dot" d="M1739,640c3.86,0,3.87-6,0-6s-3.87,6,0,6h0Z" transform="translate(-164.31 -76.5)"/>
  <path class="dot" d="M1659,500c3.86,0,3.87-6,0-6s-3.87,6,0,6h0Z" transform="translate(-164.31 -76.5)"/>
  <path class="dot" d="M1378,153c3.86,0,3.87-6,0-6s-3.87,6,0,6h0Z" transform="translate(-164.31 -76.5)"/>
  <path class="dot" d="M334,295c7.72,0,7.73-12,0-12s-7.73,12,0,12h0Z" transform="translate(-164.31 -76.5)"/>
  <path class="dot" d="M576,432.5c5.79,0,5.8-9,0-9s-5.8,9,0,9h0Z" transform="translate(-164.31 -76.5)"/>
  <path class="dot" d="M695,223.5c5.79,0,5.8-9,0-9s-5.8,9,0,9h0Z" transform="translate(-164.31 -76.5)"/>
  <path class="dot" d="M655,572.5c5.79,0,5.8-9,0-9s-5.8,9,0,9h0Z" transform="translate(-164.31 -76.5)"/>
  <path class="dot" d="M416,571.5c5.79,0,5.8-9,0-9s-5.8,9,0,9h0Z" transform="translate(-164.31 -76.5)"/>
  <path class="dot" d="M295,641.5c5.79,0,5.8-9,0-9s-5.8,9,0,9h0Z" transform="translate(-164.31 -76.5)"/>
  <path class="dot" d="M213,362.5c5.79,0,5.8-9,0-9s-5.8,9,0,9h0Z" transform="translate(-164.31 -76.5)"/>
  <path class="dot" d="M696,502.5c5.79,0,5.8-9,0-9s-5.8,9,0,9h0Z" transform="translate(-164.31 -76.5)"/>
  <path class="dot" d="M775,641.5c5.79,0,5.8-9,0-9s-5.8,9,0,9h0Z" transform="translate(-164.31 -76.5)"/>
  <path class="dot" d="M936,225.5c5.79,0,5.8-9,0-9s-5.8,9,0,9h0Z" transform="translate(-164.31 -76.5)"/>
  <path class="dot" d="M1258,224.5c5.79,0,5.8-9,0-9s-5.8,9,0,9h0Z" transform="translate(-164.31 -76.5)"/>
  <path class="dot" d="M1136,572.5c5.79,0,5.8-9,0-9s-5.8,9,0,9h0Z" transform="translate(-164.31 -76.5)"/>
  <path class="dot" d="M936,502.5c5.79,0,5.8-9,0-9s-5.8,9,0,9h0Z" transform="translate(-164.31 -76.5)"/>
  <path class="dot" d="M1378,294.5c5.79,0,5.8-9,0-9s-5.8,9,0,9h0Z" transform="translate(-164.31 -76.5)"/>
  <path class="dot" d="M1538,432.5c5.79,0,5.8-9,0-9s-5.8,9,0,9h0Z" transform="translate(-164.31 -76.5)"/>
  <path class="dot" d="M1658,362.5c5.79,0,5.8-9,0-9s-5.8,9,0,9h0Z" transform="translate(-164.31 -76.5)"/>
  <path class="dot" d="M1739,502.5c5.79,0,5.8-9,0-9s-5.8,9,0,9h0Z" transform="translate(-164.31 -76.5)"/>
  <path class="dot" d="M1618,710.5c5.79,0,5.8-9,0-9s-5.8,9,0,9h0Z" transform="translate(-164.31 -76.5)"/>
  <path class="dot" d="M1417,641.5c5.79,0,5.8-9,0-9s-5.8,9,0,9h0Z" transform="translate(-164.31 -76.5)"/>
  <path class="dot" d="M895,710.5c5.79,0,5.8-9,0-9s-5.8,9,0,9h0Z" transform="translate(-164.31 -76.5)"/>
  <path class="dot" d="M815,154.5c5.79,0,5.8-9,0-9s-5.8,9,0,9h0Z" transform="translate(-164.31 -76.5)"/>
  <path class="dot" d="M1177,85.5c5.79,0,5.8-9,0-9s-5.8,9,0,9h0Z" transform="translate(-164.31 -76.5)"/>
  <path class="dot" d="M535,85.5c5.79,0,5.8-9,0-9s-5.8,9,0,9h0Z" transform="translate(-164.31 -76.5)"/>
  <path class="dot" d="M455,777.5c5.79,0,5.8-9,0-9s-5.8,9,0,9h0Z" transform="translate(-164.31 -76.5)"/>
  <path class="dot" d="M1297,711.5c5.79,0,5.8-9,0-9s-5.8,9,0,9h0Z" transform="translate(-164.31 -76.5)"/>
  <line class="cls-1" x1="169.02" y1="351.38" x2="250.69" y2="351.5"/>
  <line class="cls-1" x1="169.38" y1="628.4" x2="250.69" y2="629.5"/>
  <line class="cls-1" x1="169.02" y1="490.68" x2="249.81" y2="490.47"/>
  <line class="cls-1" x1="250.69" y1="351.5" x2="290.2" y2="281.42"/>
  <line class="cls-1" x1="290.69" y1="421.5" x2="250.69" y2="351.5"/>
  <line class="cls-1" x1="369.9" y1="421.13" x2="410.3" y2="350.75"/>
  <line class="cls-1" x1="403.44" y1="85.07" x2="403.44" y2="85.07"/>
  <line class="cls-1" x1="490.36" y1="350.75" x2="531.69" y2="421.5"/>
  <line class="cls-1" x1="651.21" y1="630.31" x2="730.69" y2="630.31"/>
  <line class="cls-1" x1="891.69" y1="630.5" x2="971.69" y2="630.5"/>
  <line class="cls-1" x1="891.77" y1="491.34" x2="971.69" y2="491.34"/>
  <line class="cls-1" x1="410.3" y1="73.19" x2="491.44" y2="73.19"/>
  <line class="cls-1" x1="852.69" y1="282.5" x2="770.69" y2="282.5"/>
  <line class="cls-1" x1="1092.29" y1="282.28" x2="1133.69" y2="212.5"/>
  <line class="cls-1" x1="892.13" y1="351.62" x2="851.73" y2="422"/>
  <line class="cls-1" x1="1132.32" y1="351.62" x2="1213.47" y2="350.95"/>
  <line class="cls-1" x1="1213.47" y1="350.95" x2="1253.69" y2="282.28"/>
  <line class="cls-1" x1="1254.03" y1="422" x2="1213.47" y2="350.95"/>
  <line class="cls-1" x1="1455.1" y1="73.88" x2="1373.69" y2="73.5"/>
  <line class="cls-1" x1="1373.6" y1="350.74" x2="1333.56" y2="421.33"/>
  <line class="cls-1" x1="1253.5" y1="281.4" x2="1213.47" y2="212.07"/>
  <line class="cls-1" x1="1373.6" y1="490.67" x2="1454.02" y2="490.39"/>
  <line class="cls-1" x1="1373.6" y1="629.55" x2="1453.69" y2="629.5"/>
  <line class="cls-1" x1="1092.29" y1="560.88" x2="1133.4" y2="491.34"/>
  <line class="cls-1" x1="1213.47" y1="490.67" x2="1133.4" y2="491.34"/>
  <line class="cls-1" x1="1213.47" y1="629.55" x2="1132.69" y2="630.5"/>
  <line class="cls-1" x1="1253.5" y1="560" x2="1213.47" y2="629.55"/>
  <line class="cls-1" x1="1213.47" y1="490.67" x2="1253.5" y2="560"/>
  <line class="cls-1" x1="771.67" y1="561.3" x2="730.92" y2="490.92"/>
  <line class="cls-1" x1="851.73" y1="561.3" x2="891.69" y2="491.5"/>
  <line class="cls-1" x1="851.73" y1="422" x2="891.69" y2="491.5"/>
  <line class="cls-1" x1="768.43" y1="421.58" x2="851.73" y2="422"/>
  <line class="cls-1" x1="531.69" y1="421.5" x2="610.82" y2="421.58"/>
  <line class="cls-1" x1="611.18" y1="560.97" x2="650.85" y2="490.92"/>
  <line class="cls-1" x1="490.36" y1="490.68" x2="531.69" y2="421.5"/>
  <line class="cls-1" x1="409.94" y1="490.47" x2="490.36" y2="490.68"/>
  <line class="cls-1" x1="531.11" y1="560.97" x2="490.69" y2="491.5"/>
  <line class="cls-1" x1="492.09" y1="628.56" x2="409.6" y2="628.56"/>
  <path class="dot" d="M534,645c11.58,0,11.6-18,0-18s-11.6,18,0,18h0Z" transform="translate(-164.31 -76.5)"/>
  <path class="dot" d="M575,298c11.58,0,11.6-18,0-18s-11.6,18,0,18h0Z" transform="translate(-164.31 -76.5)"/>
  <path class="dot" d="M1378,436c11.58,0,11.6-18,0-18s-11.6,18,0,18h0Z" transform="translate(-164.31 -76.5)"/>
  <path class="dot" d="M173,158c11.58,0,11.6-18,0-18s-11.6,18,0,18h0Z" transform="translate(-164.31 -76.5)"/>
  <path class="dot" d="M1619,298c11.58,0,11.6-18,0-18s-11.6,18,0,18h0Z" transform="translate(-164.31 -76.5)"/>
  <path class="dot" d="M1618,576c11.58,0,11.6-18,0-18s-11.6,18,0,18h0Z" transform="translate(-164.31 -76.5)"/>
  <path class="dot" d="M1298,160c11.58,0,11.6-18,0-18s-11.6,18,0,18h0Z" transform="translate(-164.31 -76.5)"/>
  <path class="dot" d="M895,576c11.58,0,11.6-18,0-18s-11.6,18,0,18h0Z" transform="translate(-164.31 -76.5)"/>
</svg>
