<svg xmlns="http://www.w3.org/2000/svg" xmlns:xlink="http://www.w3.org/1999/xlink" version="1.1" x="0px" y="0px" viewBox="0 0 100 100" enable-background="new 0 0 100 100" xml:space="preserve"><path fill="#315879" d="M50,5C25.2,5,5,25.2,5,50c0,24.8,20.2,45,45,45c24.8,0,45-20.2,45-45C95,25.2,74.8,5,50,5L50,5z M72.3,45.5  c-0.4-11-2.6-20.5-6.2-27.6c10.5,5.3,18,15.5,19.5,27.6H72.3z M33.8,17.9C30.3,25,28,34.5,27.6,45.5H14.3  C15.9,33.4,23.4,23.2,33.8,17.9L33.8,17.9z M27.7,54.5c0.6,11.3,3.2,21.1,7.3,28.1c-11.1-5-19-15.6-20.7-28.1H27.7z M50,84.5  c-5.1,0-12.2-11.3-13.3-30h26.6C62.1,73.3,55.1,84.5,50,84.5L50,84.5z M36.6,45.5C37.4,25.9,44.7,14,50,14  c5.3,0,12.5,11.9,13.4,31.5H36.6z M65,82.6c4-7,6.7-16.8,7.2-28.1h13.4C84,67,76,77.6,65,82.6z"></path></svg>